<svg width="16" height="20" viewBox="0 0 16 20" fill="none" xmlns="http://www.w3.org/2000/svg">
<g id="_&#235;&#160;&#136;&#236;&#157;&#180;&#236;&#150;&#180;_1" clip-path="url(#clip0_1050_6653)">
<path id="Vector" d="M7.76924 19.9634C7.1759 19.8216 6.84131 19.3708 6.83685 18.6936C6.83239 17.8081 6.83685 16.9203 6.83685 16.0348C6.83685 12.4746 6.83685 8.91666 6.83685 5.35642C6.83685 5.27176 6.83685 5.18711 6.8257 5.10245C6.77886 4.76152 6.43535 4.60136 6.15206 4.78441C6.03161 4.8622 5.94239 4.97431 5.84424 5.07499C4.58396 6.36317 3.32591 7.65364 2.06563 8.94182C1.58159 9.43605 0.914646 9.4841 0.414995 9.06767C-0.0511981 8.67641 -0.13596 7.94423 0.232086 7.45229C0.296773 7.36535 0.370383 7.28298 0.446223 7.20289C2.6545 4.92398 4.8784 2.66108 7.0666 0.361571C7.5551 -0.150957 8.48303 -0.0891788 8.92022 0.366147C11.1307 2.67023 13.3636 4.95372 15.5986 7.23264C16.2834 7.93279 16.0269 8.90979 15.3309 9.24156C14.8625 9.4635 14.3361 9.35368 13.9234 8.93038C12.6386 7.61246 11.356 6.29224 10.0712 4.97203C10.0311 4.93084 9.99313 4.88737 9.94852 4.84847C9.80353 4.72034 9.6407 4.66314 9.45556 4.74322C9.26596 4.82559 9.1812 4.98347 9.17897 5.19168C9.17897 5.25117 9.17897 5.30837 9.17897 5.36786C9.17897 9.79985 9.17897 14.2341 9.17897 18.6661C9.17897 19.2061 8.98714 19.6294 8.5031 19.8811C8.40496 19.9314 8.29566 19.9612 8.19082 20.0023H7.96107C7.90084 19.9566 7.825 20.0046 7.76478 19.968L7.76924 19.9634Z" fill="#E5E5E5"/>
</g>
<defs>
<clipPath id="clip0_1050_6653">
<rect width="16" height="20" fill="white"/>
</clipPath>
</defs>
</svg>
