<svg width="7" height="14" viewBox="0 0 7 14" fill="none" xmlns="http://www.w3.org/2000/svg">
<g clip-path="url(#clip0_685_2708)">
<path d="M0.521773 14C0.38709 13.9345 0.250658 13.8767 0.152707 13.7437C-0.0379476 13.4836 -0.0466928 13.1252 0.142213 12.8613C0.180694 12.8073 0.224421 12.7592 0.268149 12.711C1.9613 10.8459 3.65446 8.97881 5.35111 7.11561C5.44381 7.01349 5.42982 6.96917 5.34586 6.87861C3.64396 5.00963 1.94556 3.1368 0.245413 1.26397C-0.00646191 0.986513 -0.064183 0.672448 0.0792453 0.373796C0.264653 -0.0115601 0.724673 -0.121387 1.03602 0.148363C1.08149 0.186899 1.12347 0.233141 1.1637 0.277457C3.02302 2.32755 4.88409 4.37572 6.74516 6.42582C7.08799 6.80347 7.08624 7.20039 6.73991 7.57996C4.91732 9.58574 3.09474 11.5934 1.2739 13.6012C1.12522 13.7649 0.976546 13.9268 0.770149 14L0.521773 14Z" fill="#222222"/>
</g>
<defs>
<clipPath id="clip0_685_2708">
<rect width="7" height="14" fill="white" transform="translate(7 14) rotate(-180)"/>
</clipPath>
</defs>
</svg>
