<svg width="17" height="19" viewBox="0 0 17 19" fill="none" xmlns="http://www.w3.org/2000/svg">
<g clip-path="url(#clip0_988_6441)">
<path d="M16.3065 13.2994C15.1742 12.3502 14.5363 11.1631 14.4193 9.7434C14.3812 9.29206 14.3812 8.83799 14.3841 8.38391C14.0652 8.44683 13.7346 8.48239 13.3952 8.48239C10.753 8.48239 8.61409 6.48008 8.61409 4.01276C8.61409 3.13744 8.88621 2.32503 9.35144 1.63571C9.32218 1.61109 9.31048 1.57827 9.31048 1.52083C9.31633 1.26643 9.31925 1.01478 9.31048 0.760388C9.29877 0.432141 9.11443 0.20784 8.80135 0.0655994C8.75746 0.0464517 8.69309 0.0601287 8.66968 0.00268555H8.27175C8.27175 0.00268555 8.24834 0.0300394 8.23371 0.0355102C7.81237 0.188692 7.63096 0.429406 7.62803 0.850655C7.62803 1.06675 7.61925 1.28285 7.62803 1.49894C7.63388 1.61656 7.59292 1.65486 7.4671 1.67401C4.72252 2.08432 2.60118 4.36016 2.54851 6.96151C2.53388 7.72742 2.54266 8.49606 2.54266 9.26197C2.54266 10.14 2.34369 10.9771 1.91065 11.7594C1.57416 12.3694 1.12941 12.9028 0.570544 13.3514C0.111163 13.7207 -0.0878041 14.1829 0.0380135 14.741C0.193091 15.4248 0.789993 15.8378 1.59171 15.8378C6.17674 15.8378 10.7588 15.8378 15.3439 15.8378C15.3907 15.8378 15.4375 15.8378 15.4814 15.8378C16.3797 15.7913 16.9971 15.1376 16.921 14.3033C16.8829 13.882 16.6313 13.5757 16.3065 13.3021V13.2994Z" fill="#222222"/>
<path d="M8.52921 18.9973C10.2731 18.9644 11.3967 17.6788 11.5576 16.6284H5.37207C5.57689 17.8128 6.82629 19.0274 8.52629 18.9973H8.52921Z" fill="#222222"/>
<path d="M13.3949 0.640137C12.1806 0.640137 11.1067 1.20363 10.4542 2.06527C10.0387 2.61509 9.79004 3.28526 9.79004 4.01013C9.79004 5.8702 11.4052 7.38013 13.3949 7.38013C13.6992 7.38013 13.9918 7.34184 14.2756 7.27619C15.841 6.90964 16.9997 5.58845 16.9997 4.01287C16.9997 2.15281 15.3845 0.642872 13.3949 0.642872V0.640137Z" fill="#D9340F"/>
</g>
<defs>
<clipPath id="clip0_988_6441">
<rect width="17" height="19" fill="white"/>
</clipPath>
</defs>
</svg>
