<svg width="6" height="4" viewBox="0 0 6 4" fill="none" xmlns="http://www.w3.org/2000/svg">
<rect width="6" height="4" fill="#F5F5F5"/>
<g id="&#237;&#153;&#136;">
<rect width="375" height="1793" transform="translate(-199 -590)" fill="#FFF3C5"/>
<g id="Frame 34260">
<g clip-path="url(#clip0_125_345)">
<path d="M-199 -420C-199 -431.046 -190.046 -440 -179 -440H156C167.046 -440 176 -431.046 176 -420V1203H-199V-420Z" fill="white"/>
<g id="&#235;&#141;&#148;&#235;&#179;&#180;&#234;&#184;&#176;">
<rect x="-39.5" y="-8.5" width="57" height="21" rx="10.5" fill="white"/>
<rect x="-39.5" y="-8.5" width="57" height="21" rx="10.5" stroke="#E5E5E5"/>
<path id="Vector" d="M-1.21399e-07 0.722705C0.0280749 0.664973 0.052847 0.606492 0.109823 0.564506C0.221297 0.482782 0.374884 0.479033 0.48801 0.560007C0.511131 0.576502 0.531774 0.595246 0.552418 0.61399C1.35173 1.33976 2.15187 2.06552 2.95036 2.79279C2.99412 2.83252 3.01311 2.82653 3.05192 2.79054C3.85289 2.06102 4.6555 1.33301 5.45812 0.604243C5.57703 0.496278 5.71162 0.471536 5.83961 0.533016C6.00476 0.61249 6.05182 0.809677 5.93622 0.943134C5.91971 0.962627 5.89989 0.980622 5.8809 0.997866C5.00231 1.79486 4.12456 2.5926 3.24597 3.39034C3.08413 3.5373 2.91403 3.53655 2.75135 3.3881C1.89176 2.60685 1.03135 1.8256 0.170927 1.0451C0.10074 0.981371 0.0313779 0.917642 -1.16746e-07 0.829171L-1.21399e-07 0.722705Z" fill="#BDBDBD"/>
</g>
</g>
</g>
</g>
<defs>
<clipPath id="clip0_125_345">
<path d="M-199 -420C-199 -431.046 -190.046 -440 -179 -440H156C167.046 -440 176 -431.046 176 -420V1203H-199V-420Z" fill="white"/>
</clipPath>
</defs>
</svg>
