<svg width="17" height="19" viewBox="0 0 17 19" fill="none" xmlns="http://www.w3.org/2000/svg">
<g clip-path="url(#clip0_364_2566)">
<path d="M8.70173 0.00273539C8.72523 0.0601785 8.78987 0.0465016 8.83394 0.0656493C9.14832 0.205154 9.33048 0.432191 9.34518 0.760438C9.35399 1.01483 9.35399 1.26648 9.34518 1.52088C9.34518 1.62208 9.37749 1.65764 9.48621 1.67406C11.966 2.08163 13.8376 3.77757 14.3459 6.07803C14.4311 6.46098 14.4487 6.84941 14.4516 7.24057C14.4605 8.07486 14.4076 8.91189 14.4781 9.74345C14.5956 11.1631 15.2361 12.3503 16.3732 13.2995C16.7022 13.573 16.952 13.8794 16.9902 14.3006C17.0666 15.1349 16.4437 15.7914 15.5446 15.8352C15.4976 15.8352 15.4506 15.8352 15.4065 15.8352C10.8025 15.8352 6.20138 15.8352 1.59734 15.8352C0.792289 15.8352 0.192911 15.4221 0.0371905 14.7383C-0.0891489 14.1802 0.110644 13.718 0.57193 13.3487C1.13311 12.9001 1.57971 12.3667 1.91759 11.7567C2.35243 10.9744 2.54929 10.1373 2.55223 9.25929C2.55223 8.49338 2.54341 7.72473 2.5581 6.95883C2.61099 4.36021 4.73819 2.08437 7.49709 1.67132C7.62343 1.65217 7.66457 1.61388 7.65869 1.49626C7.64988 1.28016 7.65575 1.06407 7.65869 0.84797C7.66163 0.42672 7.84379 0.186006 8.26688 0.0328246C8.28157 0.0273539 8.29333 0.0109415 8.30508 0C8.43729 0 8.56951 0 8.70466 0L8.70173 0.00273539Z" fill="#222222"/>
<path d="M11.6055 16.6312C11.4439 17.6816 10.3156 18.9672 8.56452 19C6.85747 19.0328 5.59995 17.8156 5.39722 16.6312H11.6055Z" fill="#222222"/>
</g>
<defs>
<clipPath id="clip0_364_2566">
<rect width="17" height="19" fill="white"/>
</clipPath>
</defs>
</svg>
