<svg width="12" height="12" viewBox="0 0 12 12" fill="none" xmlns="http://www.w3.org/2000/svg">
<g id="calander_gray" clip-path="url(#clip0_1223_7439)">
<path id="Vector" d="M6.00403 5.40241C7.95297 5.40241 9.90393 5.40241 11.8529 5.40039C11.9657 5.40039 12 5.42257 12 5.54356C11.996 7.08616 12 8.62876 11.996 10.1714C11.994 11.0969 11.3933 11.8107 10.4864 11.9781C10.3856 11.9963 10.2808 12.0003 10.178 12.0003C7.39469 12.0003 4.60934 12.0023 1.826 12.0003C0.904938 12.0003 0.187437 11.3933 0.0241854 10.4859C0.00604635 10.3811 0.0040309 10.2722 0.0040309 10.1633C0.0040309 8.62069 0.0040309 7.07809 0 5.53549C0 5.42056 0.0362781 5.40039 0.141082 5.40039C2.09607 5.40241 4.04904 5.40241 6.00403 5.40241Z" fill="#BDBDBD"/>
<path id="Vector_2" d="M5.99453 4.19829C4.04558 4.19829 2.09664 4.19829 0.147701 4.2003C0.0328201 4.2003 -0.00345806 4.17812 0.0025883 4.05713C0.0187119 3.74458 -0.0175662 3.43001 0.0670828 3.12149C0.272659 2.36935 0.951866 1.82692 1.73185 1.80272C1.8951 1.79667 2.06036 1.79062 2.22362 1.80272C2.3647 1.8128 2.41508 1.77852 2.40904 1.62527C2.39493 1.29256 2.40299 0.959839 2.40501 0.627122C2.40299 0.264157 2.65492 0 2.99755 0C3.34219 0 3.59614 0.256091 3.60219 0.621072C3.60823 0.971938 3.60622 1.32482 3.60219 1.67569C3.60219 1.77046 3.62234 1.80272 3.72513 1.80272C5.24276 1.79869 6.7604 1.79869 8.28005 1.80272C8.38082 1.80272 8.40299 1.77248 8.40299 1.67569C8.39694 1.31877 8.39694 0.963872 8.40299 0.606957C8.40904 0.282306 8.63678 0.0282306 8.93709 0.00403294C9.25754 -0.0241976 9.51955 0.163334 9.59009 0.47387C9.60219 0.528315 9.6042 0.584776 9.6042 0.641237C9.6042 0.984036 9.61025 1.32482 9.60219 1.66762C9.59815 1.78457 9.64048 1.80272 9.74327 1.80272C10.0557 1.80272 10.3701 1.77651 10.6784 1.8612C11.4282 2.06486 11.9744 2.74643 11.9986 3.52479C12.0046 3.71635 11.9986 3.90993 12.0026 4.1015C12.0046 4.18417 11.9784 4.21039 11.8998 4.2003C11.8716 4.19627 11.8434 4.2003 11.8152 4.2003C9.87629 4.2003 7.93541 4.2003 5.99654 4.2003L5.99453 4.19829Z" fill="#BDBDBD"/>
</g>
<defs>
<clipPath id="clip0_1223_7439">
<rect width="12" height="12" fill="white"/>
</clipPath>
</defs>
</svg>
