<svg width="14" height="7" viewBox="0 0 14 7" fill="none" xmlns="http://www.w3.org/2000/svg">
<path d="M-2.83215e-07 0.521773C0.0655103 0.38709 0.123314 0.250658 0.256262 0.152707C0.516377 -0.0379477 0.874759 -0.0466929 1.13873 0.142213C1.19268 0.180694 1.24085 0.224421 1.28902 0.268149C3.15414 1.9613 5.02119 3.65446 6.88439 5.35111C6.98651 5.44381 7.03083 5.42982 7.12139 5.34586C8.99036 3.64396 10.8632 1.94556 12.736 0.245411C13.0135 -0.00646362 13.3276 -0.0641848 13.6262 0.0792435C14.0116 0.264651 14.1214 0.724671 13.8516 1.03602C13.8131 1.08149 13.7669 1.12347 13.7225 1.1637C11.6724 3.02302 9.62428 4.88409 7.57418 6.74516C7.19653 7.08799 6.79961 7.08624 6.42004 6.73991C4.41426 4.91732 2.40655 3.09474 0.398844 1.2739C0.235067 1.12522 0.0732175 0.976546 -2.72358e-07 0.770149L-2.83215e-07 0.521773Z" fill="#828282"/>
</svg>
