<svg width="22" height="16" viewBox="0 0 22 16" fill="none" xmlns="http://www.w3.org/2000/svg">
<g clip-path="url(#clip0_125_459)">
<path d="M0 14.2792V4.47758C0.0978848 4.42167 0.162071 4.49622 0.229468 4.53971C3.12589 6.41119 6.02713 8.27646 8.92195 10.151C9.50284 10.5269 10.1174 10.808 10.8251 10.8391C11.3241 10.8608 11.8071 10.7785 12.2661 10.5813C12.5341 10.4648 12.786 10.3188 13.0299 10.1619C15.9215 8.29509 18.8147 6.43138 21.7047 4.563C21.7465 4.5366 21.7866 4.50554 21.8315 4.48535C21.9374 4.4372 21.9968 4.45894 21.992 4.58319C21.9904 4.6391 21.992 4.69346 21.992 4.74937C21.992 7.81519 21.9727 10.8826 22.0016 13.9484C22.0128 15.1241 21.0725 15.955 19.9316 15.9985C19.8818 16 19.8321 15.9985 19.7807 15.9985C13.9028 15.9985 8.02334 16 2.14544 15.9969C1.3046 15.9969 0.643472 15.6599 0.200584 14.9486C0.0706054 14.7389 0.0465354 14.509 0.00160467 14.2792H0Z" fill="#BDBDBD"/>
<path d="M0 1.65376C0.04814 1.51243 0.0866521 1.36644 0.147629 1.23132C0.495842 0.471856 1.1008 0.0649445 1.95609 0.00282063C2.01225 -0.00183866 2.07002 -0.000285562 2.12779 -0.000285562C8.03457 -0.000285562 13.9414 -0.000285562 19.8481 -0.000285562C21.0853 -0.000285562 22.0032 0.874108 21.9663 2.0234C21.9438 2.70366 21.5956 3.20686 21.0147 3.58115C19.2416 4.71957 17.4748 5.86421 15.7049 7.00573C14.5592 7.74501 13.4118 8.48428 12.2661 9.22355C11.3627 9.80597 10.6101 9.80441 9.70503 9.21889C6.88724 7.40333 4.07586 5.57844 1.25164 3.77685C0.643472 3.38857 0.149234 2.9537 0 2.23462C0 2.04048 0 1.84635 0 1.65376Z" fill="#BDBDBD"/>
</g>
<defs>
<clipPath id="clip0_125_459">
<rect width="22" height="16" fill="white"/>
</clipPath>
</defs>
</svg>
