<svg width="19" height="17" viewBox="0 0 19 17" fill="none" xmlns="http://www.w3.org/2000/svg">
<g id="heart_1-on">
<path id="Vector" d="M18.9274 4.77939C18.7731 3.74078 18.401 2.79347 17.7453 1.96943C16.8945 0.901144 15.7963 0.257433 14.4441 0.0611235C13.3369 -0.100946 12.2932 0.0771021 11.3199 0.634072C10.6437 1.01984 10.0833 1.54029 9.6182 2.16346C9.53879 2.27074 9.49341 2.31183 9.40039 2.17259C9.29829 2.01965 9.1735 1.87812 9.04872 1.74116C7.77134 0.346457 6.20808 -0.25845 4.34307 0.102211C2.38276 0.481134 1.07362 1.69095 0.399765 3.54675C-0.342157 5.59202 -0.0267832 7.53913 1.14169 9.35842C1.79285 10.3742 2.60965 11.2462 3.4809 12.0679C5.17575 13.6681 6.97723 15.1473 8.73107 16.6766C9.24384 17.124 9.79971 17.1035 10.3329 16.6378C11.878 15.2888 13.4526 13.9762 14.9682 12.5952C16.0459 11.6137 17.0805 10.5888 17.8746 9.34929C18.4146 8.50698 18.8026 7.60077 18.9342 6.59639C18.9433 6.52335 18.9274 6.43432 19 6.37726V5.1469C18.9319 5.03277 18.9455 4.90037 18.9274 4.77711V4.77939Z" fill="#FFCC00"/>
</g>
</svg>
