<svg width="15" height="13" viewBox="0 0 15 13" fill="none" xmlns="http://www.w3.org/2000/svg">
<g id="heart_1-on">
<path id="Vector" d="M14.9427 3.65483C14.8209 2.8606 14.5271 2.13619 14.0095 1.50604C13.3378 0.68911 12.4708 0.19686 11.4032 0.0467415C10.5291 -0.0771938 9.70516 0.0589604 8.93673 0.484879C8.40295 0.77988 7.96052 1.17787 7.59332 1.65441C7.53063 1.73645 7.4948 1.76787 7.42136 1.66139C7.34076 1.54444 7.24224 1.43621 7.14372 1.33148C6.13527 0.264937 4.90112 -0.197638 3.42874 0.0781617C1.88113 0.367926 0.847595 1.29308 0.315604 2.71222C-0.270124 4.27625 -0.0211446 5.76522 0.901332 7.15644C1.41541 7.93321 2.06025 8.60002 2.74808 9.22843C4.08612 10.4521 5.50834 11.5832 6.89295 12.7527C7.29777 13.0949 7.73662 13.0791 8.15755 12.7231C9.37737 11.6914 10.6205 10.6877 11.817 9.63165C12.6678 8.88106 13.4846 8.0973 14.1116 7.14945C14.5379 6.50534 14.8442 5.81235 14.9481 5.0443C14.9552 4.98844 14.9427 4.92037 15 4.87673V3.93587C14.9463 3.84859 14.957 3.74734 14.9427 3.65308V3.65483Z" fill="#FFCC00"/>
</g>
</svg>
