<svg width="19" height="17" viewBox="0 0 19 17" fill="none" xmlns="http://www.w3.org/2000/svg">
<g id="heart_1-off_white">
<path id="Vector" d="M18.9274 4.77939C18.7731 3.74078 18.401 2.79347 17.7453 1.96943C16.8945 0.901144 15.7963 0.257433 14.4441 0.0611235C13.3369 -0.100946 12.2932 0.0771021 11.3199 0.634072C10.6437 1.01984 10.0833 1.54029 9.6182 2.16346C9.53879 2.27074 9.49341 2.31183 9.40039 2.17259C9.29829 2.01965 9.1735 1.87812 9.04872 1.74116C7.77134 0.346457 6.20808 -0.25845 4.34307 0.102211C2.38276 0.481134 1.07362 1.69095 0.399765 3.54675C-0.342157 5.59202 -0.0267832 7.53913 1.14169 9.35842C1.79285 10.3742 2.60965 11.2462 3.4809 12.0679C5.17575 13.6681 6.97723 15.1473 8.73107 16.6766C9.24384 17.124 9.79971 17.1035 10.3329 16.6378C11.878 15.2888 13.4526 13.9762 14.9682 12.5952C16.0459 11.6137 17.0805 10.5888 17.8746 9.34929C18.4146 8.50698 18.8026 7.60077 18.9342 6.59639C18.9433 6.52335 18.9274 6.43432 19 6.37726V6.07823C18.9501 6.05312 18.9569 6.02801 19 6.0029V5.51898C18.966 5.503 18.9637 5.4756 18.9682 5.44365C18.9682 5.41854 18.9682 5.39343 18.9682 5.36832C18.9637 5.33864 18.9569 5.30669 19 5.29527V5.1469C18.9319 5.03277 18.9455 4.90037 18.9274 4.77711V4.77939ZM17.8792 5.7655C17.886 6.87716 17.5184 7.87012 16.9194 8.78547C16.1503 9.95876 15.1543 10.9243 14.1242 11.8579C12.6517 13.1933 11.1247 14.467 9.62728 15.775C9.55241 15.8412 9.50249 15.88 9.40039 15.791C7.68512 14.2821 5.9154 12.8326 4.25231 11.2644C3.45821 10.5157 2.70948 9.72364 2.10596 8.80373C1.12354 7.30858 0.835389 5.70615 1.42303 3.99644C1.93126 2.52412 2.93637 1.54942 4.46786 1.21615C5.88137 0.907992 7.09975 1.328 8.10713 2.3689C8.43158 2.70445 8.68343 3.09479 8.95342 3.47371C9.23023 3.86176 9.77702 3.85491 10.0629 3.47371C10.1423 3.37099 10.2081 3.25685 10.2807 3.14957C10.7436 2.46705 11.2949 1.87812 12.0436 1.51518C13.3165 0.898862 14.5802 0.987886 15.7759 1.69779C17.0533 2.45792 17.6636 3.66317 17.8497 5.11266C17.8656 5.22908 17.8724 5.34778 17.8792 5.46647C17.8837 5.56463 17.8792 5.66507 17.8792 5.7655Z" fill="white"/>
</g>
</svg>
