<svg width="15" height="13" viewBox="0 0 15 13" fill="none" xmlns="http://www.w3.org/2000/svg">
<g id="heart_3">
<path id="Vector" d="M14.9427 3.65483C14.8209 2.8606 14.5271 2.13619 14.0095 1.50604C13.3378 0.68911 12.4708 0.19686 11.4032 0.0467415C10.5291 -0.0771938 9.70516 0.0589604 8.93673 0.484879C8.40295 0.77988 7.96052 1.17787 7.59332 1.65441C7.53063 1.73645 7.4948 1.76787 7.42136 1.66139C7.34076 1.54444 7.24224 1.43621 7.14372 1.33148C6.13527 0.264937 4.90112 -0.197638 3.42874 0.0781617C1.88113 0.367926 0.847595 1.29308 0.315604 2.71222C-0.270124 4.27625 -0.0211446 5.76522 0.901332 7.15644C1.41541 7.93321 2.06025 8.60002 2.74808 9.22843C4.08612 10.4521 5.50834 11.5832 6.89295 12.7527C7.29777 13.0949 7.73662 13.0791 8.15755 12.7231C9.37737 11.6914 10.6205 10.6877 11.817 9.63165C12.6678 8.88106 13.4846 8.0973 14.1116 7.14945C14.5379 6.50534 14.8442 5.81235 14.9481 5.0443C14.9552 4.98844 14.9427 4.92037 15 4.87673V4.64806C14.9606 4.62886 14.966 4.60965 15 4.59045V4.22039C14.9731 4.20817 14.9713 4.18723 14.9749 4.16279C14.9749 4.14359 14.9749 4.12439 14.9749 4.10519C14.9713 4.08249 14.966 4.05806 15 4.04933V3.93587C14.9463 3.84859 14.957 3.74734 14.9427 3.65308V3.65483ZM14.1151 4.40891C14.1205 5.25901 13.8303 6.01833 13.3575 6.7183C12.7502 7.61552 11.9639 8.3539 11.1507 9.06783C9.98818 10.089 8.78269 11.063 7.60048 12.0632C7.54137 12.1138 7.50197 12.1435 7.42136 12.0754C6.0672 10.9216 4.67005 9.81319 3.35709 8.61399C2.73016 8.04144 2.13906 7.43573 1.6626 6.73226C0.887002 5.58892 0.659518 4.36353 1.12344 3.0561C1.52468 1.93021 2.31818 1.18485 3.52726 0.929999C4.64318 0.694347 5.60507 1.01553 6.40037 1.81151C6.65651 2.06811 6.85534 2.3666 7.06849 2.65636C7.28702 2.95311 7.7187 2.94787 7.9444 2.65636C8.00709 2.57781 8.05904 2.49054 8.11635 2.40849C8.48176 1.88657 8.91703 1.43621 9.50813 1.15867C10.513 0.687365 11.5107 0.755442 12.4547 1.29831C13.4631 1.87959 13.945 2.80125 14.0919 3.90968C14.1044 3.99871 14.1098 4.08948 14.1151 4.18024C14.1187 4.2553 14.1151 4.33211 14.1151 4.40891Z" fill="white"/>
</g>
</svg>
