<svg width="19" height="17" viewBox="0 0 19 17" fill="none" xmlns="http://www.w3.org/2000/svg">
<g id="heart" clip-path="url(#clip0_751_3206)">
<path id="Vector" d="M18.9274 4.77952C18.7731 3.74098 18.401 2.79375 17.7453 1.96977C16.8945 0.901564 15.7963 0.257901 14.444 0.0616071C13.3368 -0.10045 12.2931 0.0775846 11.3197 0.634513C10.6436 1.02025 10.0831 1.54066 9.618 2.16378C9.53859 2.27106 9.49321 2.31214 9.40018 2.17291C9.29808 2.01999 9.17329 1.87847 9.0485 1.74152C7.77109 0.346919 6.2078 -0.257942 4.34274 0.102692C2.38239 0.481586 1.07322 1.69131 0.399347 3.54697C-0.342592 5.59209 -0.0272111 7.53905 1.14129 9.3582C1.79247 10.3739 2.60928 11.2458 3.48055 12.0675C5.17544 13.6675 6.97697 15.1466 8.73085 16.6759C9.24363 17.1232 9.79952 17.1027 10.3327 16.6371C11.8779 15.2881 13.4525 13.9757 14.9681 12.5948C16.0459 11.6133 17.0805 10.5885 17.8746 9.34907C18.4146 8.50683 18.8026 7.60068 18.9342 6.59638C18.9433 6.52334 18.9274 6.43433 19 6.37726V5.147C18.9319 5.03287 18.9456 4.90049 18.9274 4.77724V4.77952Z" fill="#F2AE00"/>
</g>
<defs>
<clipPath id="clip0_751_3206">
<rect width="19" height="17" fill="white"/>
</clipPath>
</defs>
</svg>
