<svg width="25" height="22" viewBox="0 0 25 22" fill="none" xmlns="http://www.w3.org/2000/svg">
<path id="Vector" d="M24.2804 6.08356C24.0825 4.7618 23.6051 3.55625 22.7639 2.50755C21.6724 1.14803 20.2636 0.328834 18.5288 0.0790076C17.1084 -0.127245 15.7694 0.0993422 14.5207 0.808153C13.6533 1.29909 12.9344 1.96142 12.3377 2.75448C12.2358 2.89101 12.1776 2.9433 12.0582 2.7661C11.9273 2.57146 11.7672 2.39136 11.6071 2.21706C9.96835 0.442128 7.96285 -0.327687 5.57024 0.131297C3.05537 0.61352 1.37588 2.15315 0.511392 4.51488C-0.440416 7.11773 -0.0358249 9.59566 1.4632 11.9109C2.29858 13.2036 3.34644 14.3133 4.46416 15.3591C6.63847 17.3955 8.94959 19.2779 11.1996 21.2242C11.8574 21.7936 12.5705 21.7674 13.2546 21.1748C15.2368 19.458 17.2568 17.7876 19.2012 16.0301C20.5838 14.781 21.9111 13.4767 22.9298 11.8993C23.6226 10.8274 24.1203 9.67409 24.2891 8.39591C24.3008 8.30295 24.2804 8.18966 24.3735 8.11703V7.73648C24.3095 7.70453 24.3182 7.67257 24.3735 7.64062V7.02477C24.3299 7.00443 24.327 6.96957 24.3328 6.92891C24.3328 6.89695 24.3328 6.865 24.3328 6.83304C24.327 6.79528 24.3182 6.75461 24.3735 6.74008V6.55126C24.2862 6.40601 24.3037 6.23752 24.2804 6.08066V6.08356ZM22.9356 7.3385C22.9444 8.75322 22.4728 10.0169 21.7044 11.1818C20.7177 12.6749 19.4399 13.9037 18.1184 15.0918C16.2293 16.7912 14.2704 18.4122 12.3493 20.0768C12.2533 20.161 12.1892 20.2104 12.0582 20.0971C9.85774 18.1769 7.58737 16.3323 5.45381 14.3366C4.43505 13.3837 3.47451 12.3757 2.70026 11.205C1.43991 9.30226 1.07025 7.26298 1.82413 5.08716C2.47613 3.21346 3.76559 1.97304 5.73033 1.54892C7.54371 1.15675 9.10677 1.69126 10.3991 3.01592C10.8154 3.44295 11.1385 3.9397 11.4848 4.42192C11.8399 4.91577 12.5414 4.90705 12.9082 4.42192C13.0101 4.2912 13.0945 4.14595 13.1876 4.00942C13.7814 3.14084 14.4887 2.39136 15.4492 1.92947C17.0822 1.14513 18.7034 1.25842 20.2374 2.16186C21.8761 3.12922 22.6591 4.66304 22.8978 6.50769C22.9182 6.65584 22.9269 6.8069 22.9356 6.95795C22.9415 7.08287 22.9356 7.21069 22.9356 7.3385Z" fill="#222222"/>
</svg>
