<svg width="24" height="21" viewBox="0 0 24 21" fill="none" xmlns="http://www.w3.org/2000/svg">
<g clip-path="url(#clip0_2859_13017)">
<path d="M23.9281 5.90424C23.7589 4.66082 23.274 3.46251 22.4335 2.43337C21.3577 1.11383 19.9692 0.318713 18.2594 0.0762322C16.8595 -0.123956 15.5399 0.095969 14.3092 0.783939C13.4543 1.26044 12.7457 1.9033 12.1576 2.67304C12.0572 2.80555 11.9998 2.85631 11.8822 2.68431C11.7531 2.4954 11.5953 2.32059 11.4376 2.15142C9.82531 0.428676 7.84874 -0.318505 5.49062 0.126984C3.01202 0.595029 1.35675 2.08939 0.504729 4.38168C-0.433354 6.908 -0.034597 9.31307 1.44281 11.5603C2.26614 12.815 3.2989 13.892 4.4005 14.9071C6.54346 16.8836 8.82125 18.7106 11.0388 20.5997C11.6871 21.1524 12.39 21.127 13.0641 20.5518C15.0178 18.8854 17.0087 17.2642 18.925 15.5584C20.2877 14.346 21.5958 13.08 22.5999 11.549C23.6986 9.87698 24.192 7.83563 23.9281 5.90142V5.90424ZM22.6056 7.12228C22.6142 8.4954 22.1495 9.72191 21.3921 10.8525C20.4196 12.3018 19.1602 13.4945 17.8578 14.6477C15.996 16.2971 14.0653 17.8704 12.172 19.486C12.0773 19.5678 12.0142 19.6157 11.8851 19.5057C9.7163 17.642 7.47867 15.8516 5.37587 13.9146C4.37181 12.9898 3.42512 12.0114 2.66203 10.8751C1.41986 9.0283 1.05553 7.04898 1.79854 4.93713C2.44114 3.11853 3.712 1.91458 5.64841 1.50292C7.43564 1.12228 8.97616 1.64108 10.2499 2.9268C10.6601 3.34127 10.9785 3.82341 11.3199 4.29146C11.6699 4.77078 12.3613 4.76232 12.7228 4.29146C12.8232 4.16458 12.9064 4.0236 12.9982 3.89108C13.5834 3.04804 14.2805 2.32059 15.2272 1.87228C16.8365 1.11101 18.4344 1.22097 19.9463 2.09785C21.5614 3.03676 22.3331 4.52548 22.5683 6.31589C22.5884 6.45969 22.597 6.60631 22.6056 6.75292C22.6113 6.87416 22.6056 6.99822 22.6056 7.12228Z" fill="white"/>
</g>
<defs>
<clipPath id="clip0_2859_13017">
<rect width="24" height="21" fill="white"/>
</clipPath>
</defs>
</svg>
