<svg width="23" height="23" viewBox="0 0 23 23" fill="none" xmlns="http://www.w3.org/2000/svg">
<g clip-path="url(#clip0_231_3419)">
<path d="M11.3468 0H11.6168C11.697 0.0510949 11.7846 0.0145985 11.8648 0.0218978C12.3319 0.0218978 12.6894 0.262774 13.0105 0.569343C13.4337 0.970803 13.835 1.39416 14.251 1.80292C16.9289 4.48175 19.5923 7.16058 22.2776 9.82482C22.9343 10.4745 23.0949 11.2263 22.9343 12.0803C22.7738 12.927 21.869 13.635 20.9496 13.6569C20.5409 13.6642 20.5628 13.6569 20.5628 14.0584C20.5628 16.2044 20.5628 18.3504 20.5628 20.4963C20.5628 21.6131 19.8623 22.5693 18.797 22.9197C18.578 22.9927 18.3591 23 18.1329 23C16.907 23 15.6812 23 14.4553 23C13.8934 23 13.6161 22.7299 13.6161 22.1606C13.6161 20.4234 13.6161 18.6934 13.6161 16.9562C13.6161 16.4453 13.3826 16.0876 12.9521 15.9124C12.7989 15.8467 12.6383 15.8175 12.4705 15.8175C11.8138 15.8175 11.157 15.8102 10.5003 15.8175C10.0552 15.8248 9.68306 15.9927 9.45685 16.4015C9.36199 16.5693 9.3474 16.7518 9.3474 16.9416C9.3474 18.635 9.3474 20.3212 9.3474 22.0146C9.3474 22.1533 9.3474 22.2993 9.31821 22.438C9.23065 22.7883 8.99714 22.9927 8.6323 22.9927C7.33344 22.9927 6.02728 22.9927 4.72843 22.9927C3.45876 22.9927 2.40799 21.7883 2.4007 20.5693C2.4007 18.5547 2.4007 16.5474 2.4007 14.5328C2.4007 14.365 2.4007 14.2044 2.4007 14.0365C2.4007 13.7883 2.27422 13.6618 2.02126 13.6569C1.1894 13.635 0.394035 13.073 0.0948604 12.2993C0.0291878 12.1387 0.0437817 11.9635 0 11.7956V11.1241C0.0583756 10.6131 0.313769 10.2117 0.678617 9.85401C3.75793 6.78102 6.83725 3.69343 9.91656 0.613139C10.2522 0.277372 10.6317 0.0218978 11.1279 0.0218978C11.2008 0.0145985 11.2738 0.0437956 11.3468 0Z" fill="#E5E5E5"/>
</g>
<defs>
<clipPath id="clip0_231_3419">
<rect width="23" height="23" fill="white"/>
</clipPath>
</defs>
</svg>
