<svg width="105" height="21" viewBox="0 0 105 21" fill="none" xmlns="http://www.w3.org/2000/svg">
<g clip-path="url(#clip0_364_2568)">
<path d="M20.579 7.38027H11.3266C11.2023 7.38027 11.0897 7.33567 11.0159 7.25392C10.946 7.17588 10.9149 7.06811 10.9304 6.95662L11.1984 5.12456C11.2256 4.9276 11.1712 4.73808 11.0431 4.59686C10.911 4.45193 10.7207 4.37018 10.5031 4.37018H8.41729C7.9939 4.37018 7.60547 4.68977 7.54721 5.08368L7.27919 6.91575C7.24035 7.17216 6.98787 7.38027 6.71209 7.38027H1.02938C0.60599 7.38027 0.217562 7.69985 0.159298 8.09377L0.00781046 9.11943C-0.0193795 9.31638 0.0350004 9.50591 0.163182 9.64712C0.295248 9.79205 0.485578 9.87381 0.703097 9.87381H20.2527C20.9402 9.87381 21.1267 9.46503 21.2432 8.65862C21.317 8.16066 21.3248 7.78533 21.1267 7.56979C21.0063 7.43972 20.8315 7.38027 20.5751 7.38027H20.579Z" fill="#F2AE00"/>
<path d="M16.5938 10.8735H3.40667C2.9794 10.8735 2.59485 11.1893 2.53659 11.587L2.38122 12.6349C2.35403 12.8319 2.40841 13.0214 2.53659 13.1626C2.66865 13.3075 2.85898 13.3893 3.0765 13.3893H13.3466C13.4708 13.3893 13.5835 13.4339 13.6573 13.5157C13.7272 13.5937 13.7583 13.7015 13.7427 13.8129C13.7039 14.0656 13.4437 14.2775 13.1756 14.2775H2.90559C2.47832 14.2775 2.09378 14.5896 2.03551 14.991L1.61213 17.871C1.53056 18.421 2.08213 19.0602 2.42006 19.3909C2.7308 19.6919 3.3484 20.1973 4.02038 20.1973H16.2365C16.9007 20.1973 17.025 19.6845 17.1337 18.9598C17.2153 18.3987 17.227 18.0568 17.0405 17.8524C16.9356 17.7372 16.7803 17.6815 16.5627 17.6815H5.41484C5.31774 17.6815 5.29055 17.6592 5.28278 17.6555C5.27112 17.6406 5.25947 17.5997 5.27112 17.5217L5.31774 17.2169C5.35658 16.9605 5.60906 16.7524 5.88484 16.7524H16.1549C16.5822 16.7524 16.9667 16.4366 17.025 16.0389L17.6309 11.9103C17.6853 11.5535 17.6348 11.3083 17.4833 11.1373C17.3163 10.9552 17.0405 10.8698 16.5899 10.8698L16.5938 10.8735Z" fill="#F2AE00"/>
<path d="M4.89426 2.67189H14.8264C14.9817 2.67189 15.075 2.69047 15.1138 2.73507C15.1488 2.77595 15.1604 2.86142 15.141 2.98777L14.6982 6.00157C14.671 6.18366 14.7137 6.33974 14.8264 6.45866C15.0439 6.70021 15.4984 6.80054 16.384 6.80054C17.2696 6.80054 18.2018 6.74108 18.3028 6.04245L18.7883 2.74622C18.8621 2.24454 18.4271 1.53847 17.961 1.05536C17.4716 0.549968 16.6287 0.00369263 15.9334 0.00369263H5.24385C4.82046 0.00369263 4.43203 0.323282 4.37377 0.717195L4.19897 1.91751C4.17178 2.11447 4.22616 2.30399 4.35434 2.44521C4.48641 2.59014 4.67674 2.67189 4.89426 2.67189Z" fill="#F2AE00"/>
<path d="M42.1872 9.40929H22.7114C22.288 9.40929 21.8996 9.72888 21.8413 10.1228L21.6665 11.3231C21.6393 11.5201 21.6937 11.7096 21.8219 11.8508C21.9539 11.9957 22.1443 12.0775 22.3618 12.0775H41.8376C42.6611 12.0775 42.797 11.5609 42.9135 10.7731C42.9951 10.2083 43.0029 9.83665 42.8009 9.61368C42.6727 9.47247 42.4746 9.40558 42.1872 9.40558V9.40929Z" fill="#F2AE00"/>
<path d="M38.2487 17.2281H27.7067C27.5708 17.2281 27.4814 17.2021 27.4309 17.1463C27.3766 17.0869 27.361 16.9791 27.3843 16.8267L27.8155 13.9021C27.8427 13.7052 27.7883 13.5156 27.6601 13.3744C27.5281 13.2295 27.3377 13.1477 27.1202 13.1477H25.081C24.6537 13.1477 24.2691 13.4599 24.2109 13.8612L23.6826 17.4622C23.6127 17.9304 24.04 18.5659 24.4595 18.997C24.8751 19.4541 25.5859 19.9855 26.2074 19.9855H37.8913C38.5983 19.9855 38.7497 19.3463 38.8546 18.6365C38.9362 18.0754 38.9478 17.6517 38.7264 17.4102C38.6138 17.2875 38.4584 17.2281 38.2526 17.2281H38.2487Z" fill="#F2AE00"/>
<path d="M28.4486 7.84479H39.379C40.1092 7.84479 40.2568 7.23534 40.3656 6.49583C40.4511 5.91982 40.4588 5.54078 40.2568 5.31781C40.1403 5.19146 39.9733 5.12828 39.7363 5.12828H29.5595C29.4741 5.12828 29.3575 5.11342 29.2954 5.04653C29.2371 4.97964 29.2371 4.87187 29.2488 4.79011L29.4857 3.17358C29.5207 2.92089 29.7848 2.70906 30.0528 2.70906H39.8878C40.6181 2.70906 40.7657 2.09961 40.8744 1.3601C40.9599 0.784095 40.9677 0.405047 40.7657 0.182078C40.6492 0.0557284 40.4821 -0.00744629 40.2452 -0.00744629H27.1047C26.6813 -0.00744629 26.2928 0.312143 26.2346 0.706056L25.5975 5.05024C25.5237 5.56679 25.9937 6.29516 26.421 6.76339C26.9182 7.27994 27.765 7.83736 28.4447 7.83736L28.4486 7.84479Z" fill="#F2AE00"/>
<path d="M75.2969 7.07556C75.3979 6.90462 75.596 6.79313 75.7941 6.79313H77.3361C77.4604 6.79313 77.5653 6.83773 77.6391 6.91948C77.7129 7.00124 77.744 7.11272 77.7285 7.23536L77.2429 10.5539C77.2157 10.736 77.2585 10.8883 77.3672 11.0073C77.608 11.2711 78.1363 11.3231 78.8588 11.3231C79.7133 11.3231 80.5523 11.2674 80.6533 10.591L82.0633 0.999645C82.0944 0.795256 82.0361 0.602016 81.9041 0.45337C81.772 0.30844 81.5817 0.226685 81.368 0.226685H79.523C79.0996 0.226685 78.7112 0.553706 78.6529 0.958767L78.2878 3.44488C78.249 3.70872 77.9926 3.92426 77.7168 3.92426H76.4583C76.5243 3.44859 76.3068 2.75739 75.8873 2.11078C75.4406 1.39727 74.9162 0.739514 74.1005 0.739514H68.7324C68.3052 0.739514 67.9206 1.0591 67.8585 1.4716L67.6798 2.68306C67.6487 2.88745 67.707 3.08069 67.8391 3.22934C67.9711 3.37427 68.1615 3.45602 68.3712 3.45602H72.9119C72.9857 3.45602 73.0828 3.46717 73.1295 3.51548C73.1722 3.56379 73.1683 3.64926 73.1605 3.71616C73.1178 4.01345 73.0557 4.30331 72.978 4.58202C72.9119 4.81985 72.6672 5.00195 72.4186 5.00195H68.0993C67.6798 5.00195 67.2875 5.32897 67.2253 5.73403L67.0467 6.9455C67.0156 7.14988 67.0739 7.34312 67.2059 7.49177C67.338 7.6367 67.5283 7.71846 67.742 7.71846H69.8162C70.0026 7.71846 70.1386 7.80764 70.1929 7.96372C70.2473 8.12723 70.2046 8.36135 69.9754 8.52486C69.1675 9.10087 68.1848 9.64714 66.9806 10.1971C66.2892 10.5093 66.4407 10.8475 66.7787 11.5907L66.8525 11.7542C67.1904 12.5011 67.3924 12.7873 67.7381 12.7873C67.8779 12.7873 68.0372 12.7427 68.2391 12.6609C71.3233 11.4606 73.8908 9.42789 75.2891 7.08299L75.2969 7.07556Z" fill="#F2AE00"/>
<path d="M84.091 18.3504C82.6966 17.6815 80.2262 16.3399 79.3794 14.8906C78.991 14.2068 79.0143 13.6011 79.0881 13.0957L79.1308 12.8059C79.1619 12.6015 79.1036 12.4082 78.9715 12.2596C78.8395 12.1147 78.6491 12.0329 78.4355 12.0329H76.3263C75.9029 12.0329 75.5145 12.3599 75.4563 12.765L75.4252 12.9657C75.3242 13.6457 75.0911 14.1548 74.6406 14.6639C73.316 16.1541 70.764 17.3098 69.0783 18.0717L68.6704 18.2575C68.0334 18.5548 68.2354 19.0081 68.5112 19.6324C68.5461 19.7142 68.585 19.8034 68.6277 19.8963C68.8724 20.4946 69.1132 20.8179 69.4123 20.9405C69.4978 20.9777 69.591 20.9926 69.6842 20.9926C69.7968 20.9926 69.9173 20.9665 70.0493 20.9182C71.5564 20.3199 74.5823 18.8781 76.3574 17.2801C76.4778 17.1686 76.6448 17.1092 76.7924 17.1203C76.874 17.124 76.9867 17.1538 77.0682 17.2504C78.3501 18.7889 80.5991 20.1564 82.2615 20.8253C82.8247 21.0446 83.1549 20.8699 83.7919 20.0115L83.8463 19.9409C84.3085 19.3166 84.5416 19.0044 84.4678 18.7145C84.4173 18.5176 84.2347 18.4061 84.0949 18.3392L84.091 18.3504Z" fill="#F2AE00"/>
<path d="M86.7867 0.226686C86.6546 0.0817555 86.4643 0 86.2545 0H84.3396C83.9123 0 83.5278 0.319589 83.4656 0.732083L81.7604 12.3414C81.7332 12.5197 81.7759 12.6721 81.8847 12.791C82.1294 13.0586 82.6693 13.1143 83.4035 13.1143C84.2813 13.1143 85.1475 13.0586 85.2446 12.3822L86.9498 0.772961C86.9809 0.568572 86.9226 0.375332 86.7906 0.226686H86.7867Z" fill="#F2AE00"/>
<path d="M57.3903 1.5459H46.6036C46.1764 1.5459 45.7918 1.86549 45.7297 2.27798L45.2597 5.48874C45.2092 5.83063 45.415 6.13907 45.7608 6.23569C46.3978 6.41407 46.7629 6.96406 46.6697 7.60324C46.5765 8.24985 46.0171 8.82957 45.3141 9.00794C44.9567 9.10085 44.6848 9.38328 44.6343 9.71401L44.2536 12.319C44.1798 12.8282 44.6265 13.5454 45.0732 14.0508C45.5665 14.5747 47.6524 15.1508 48.3127 15.1508H55.3549C56.0813 15.1508 56.2444 14.467 56.3571 13.7014C56.4464 13.092 56.4581 12.6646 56.2405 12.4231C56.1279 12.2967 55.9609 12.2336 55.7434 12.2336H49.5052C49.4197 12.2336 49.3071 12.2187 49.245 12.1518C49.1828 12.0812 49.1828 11.966 49.1983 11.8805L49.4314 10.29C49.4702 10.0299 49.7305 9.81063 50.0024 9.81063H56.0968C56.8232 9.81063 56.9863 9.12686 57.099 8.36133C57.1883 7.75188 57.2 7.32452 56.9824 7.08297C56.8698 6.95663 56.7028 6.89345 56.4853 6.89345H50.3908C50.2665 6.89345 50.1578 6.84886 50.084 6.7671C50.0102 6.68535 49.9791 6.57386 49.9946 6.45123L50.2199 4.9276C50.2588 4.66747 50.519 4.44822 50.7909 4.44822H57.0058C57.7321 4.44822 57.8953 3.76445 58.0079 2.99892C58.0972 2.38947 58.1089 1.96211 57.8914 1.72056C57.7787 1.59421 57.6117 1.53104 57.3942 1.53104L57.3903 1.5459Z" fill="#F2AE00"/>
<path d="M64.7161 0.111474H62.6302C62.2068 0.111474 61.8184 0.438495 61.7562 0.843557L59.1227 18.774C59.0955 18.9561 59.1382 19.1085 59.247 19.2311C59.4995 19.5098 60.0627 19.5656 60.8318 19.5656C61.931 19.5656 62.6846 19.4355 62.7778 18.7889L65.4075 0.880718C65.4385 0.676329 65.3803 0.483089 65.2482 0.334443C65.1162 0.189513 64.9258 0.107758 64.7122 0.107758L64.7161 0.111474Z" fill="#F2AE00"/>
<path d="M104.802 10.1786L96.5479 2.79456C96.2915 2.56416 95.8837 2.57531 95.6429 2.82429L93.9493 4.55602C93.7279 4.78271 93.7279 5.13203 93.9377 5.36986C94.8582 6.42525 95.0835 7.70732 94.4038 8.40225C93.724 9.09717 92.3762 8.97082 91.2148 8.16441C90.9468 7.9786 90.5816 8.0009 90.3563 8.2313L88.6667 9.96303C88.4259 10.2083 88.4414 10.5948 88.6978 10.8215L96.9557 18.2092C97.2121 18.4396 97.6161 18.4247 97.853 18.1795L104.833 11.037C105.074 10.7917 105.058 10.4053 104.802 10.1786ZM93.7939 13.5231C93.6153 13.7052 93.32 13.7126 93.1297 13.5454C92.9394 13.3782 92.9316 13.092 93.1064 12.9099L94.1979 11.7914C94.3766 11.6093 94.6718 11.6019 94.8621 11.7691C95.0524 11.9363 95.0602 12.2225 94.8854 12.4045L93.7939 13.5231ZM96.2022 11.0593C96.0235 11.2414 95.7283 11.2488 95.538 11.0816C95.3477 10.9144 95.3399 10.6282 95.5147 10.4461L96.6062 9.32757C96.7848 9.14548 97.08 9.13804 97.2704 9.30527C97.4607 9.4725 97.4685 9.75864 97.2937 9.94073L96.2022 11.0593ZM98.6104 8.59548C98.4318 8.77758 98.1366 8.78501 97.9462 8.61778C97.7559 8.45056 97.7481 8.16441 97.9229 7.98232L99.0144 6.86376C99.1931 6.68166 99.4883 6.67423 99.6786 6.84146C99.869 7.00869 99.8767 7.29483 99.7019 7.47692L98.6104 8.59548Z" fill="#F2AE00"/>
</g>
<defs>
<clipPath id="clip0_364_2568">
<rect width="105" height="21" fill="white"/>
</clipPath>
</defs>
</svg>
