<svg width="102" height="22" viewBox="0 0 102 22" fill="none" xmlns="http://www.w3.org/2000/svg">
<g clip-path="url(#clip0_1050_4293)">
<path d="M19.9906 7.73133H11.0025C10.8784 7.73133 10.7721 7.68561 10.7012 7.60028C10.6303 7.518 10.6037 7.40829 10.6185 7.28944L10.8814 5.3695C10.9109 5.16227 10.8548 4.96418 10.7278 4.81485C10.5978 4.66248 10.4117 4.57715 10.202 4.57715H8.17578C7.76522 4.57715 7.38714 4.91237 7.33102 5.32684L7.06814 7.24677C7.0327 7.51495 6.78459 7.73437 6.5158 7.73437H0.998297C0.587733 7.73437 0.20966 8.0696 0.15354 8.48406L0.00585473 9.55374C-0.0236822 9.76097 0.032438 9.95906 0.159447 10.1084C0.28941 10.2608 0.475493 10.3461 0.685205 10.3461H19.6745C20.3421 10.3461 20.5222 9.91639 20.6374 9.07223C20.7083 8.55111 20.7172 8.15798 20.5252 7.93246C20.41 7.79532 20.2387 7.73133 19.9876 7.73133H19.9906Z" fill="#FFCC00"/>
<path d="M16.1183 11.3916H3.30811C2.89164 11.3916 2.51947 11.7207 2.46335 12.1413L2.31272 13.2384C2.28318 13.4456 2.3393 13.6437 2.46631 13.793C2.59627 13.9454 2.78235 14.0307 2.99207 14.0307H12.9667C13.0908 14.0307 13.1971 14.0765 13.268 14.1618C13.3389 14.2441 13.3654 14.3538 13.3507 14.4726C13.3152 14.7378 13.0612 14.9602 12.7983 14.9602H2.82075C2.40428 14.9602 2.03211 15.2894 1.97599 15.7099L1.56543 18.73C1.48568 19.306 2.02325 19.9734 2.35111 20.3208C2.65239 20.6378 3.25494 21.168 3.90476 21.168H15.7727C16.4166 21.168 16.5407 20.6286 16.6441 19.8698C16.7238 19.2816 16.7327 18.922 16.5554 18.7087C16.4521 18.5868 16.3014 18.5289 16.0917 18.5289H5.2605C5.16599 18.5289 5.1394 18.5075 5.1335 18.5015C5.12168 18.4862 5.11282 18.4405 5.12168 18.3613L5.16599 18.0413C5.20143 17.7731 5.44954 17.5537 5.71833 17.5537H15.6959C16.1124 17.5537 16.4846 17.2245 16.5407 16.804L17.1285 12.4796C17.1787 12.1047 17.1344 11.8457 16.9837 11.6689C16.8213 11.4769 16.5525 11.3916 16.1153 11.3916H16.1183Z" fill="#FFCC00"/>
<path d="M4.75543 2.7975H14.4052C14.5558 2.7975 14.6474 2.81883 14.6828 2.8615C14.7183 2.90416 14.7271 2.99559 14.7094 3.12663L14.2781 6.28385C14.2516 6.47585 14.2929 6.63737 14.4022 6.76536C14.6149 7.01831 15.055 7.12192 15.9145 7.12192C16.774 7.12192 17.6808 7.06097 17.7783 6.32652L18.2479 2.87369C18.3188 2.34951 17.8964 1.60592 17.4445 1.10308C16.969 0.572815 16.1508 0.00292969 15.4744 0.00292969H5.09511C4.68454 0.00292969 4.30647 0.338156 4.25035 0.752618L4.07904 2.01124C4.0495 2.21847 4.10562 2.41656 4.23263 2.56589C4.36259 2.71826 4.54867 2.80359 4.75543 2.80359V2.7975Z" fill="#FFCC00"/>
<path d="M40.9825 9.85864H22.0611C21.6506 9.85864 21.2725 10.1939 21.2164 10.6083L21.0451 11.867C21.0155 12.0742 21.0717 12.2723 21.1987 12.4216C21.3286 12.574 21.5147 12.6593 21.7244 12.6593H40.6458C41.4463 12.6593 41.5792 12.1199 41.6914 11.294C41.7712 10.7028 41.78 10.3158 41.5821 10.0811C41.4551 9.93178 41.2661 9.86169 40.9855 9.86169L40.9825 9.85864Z" fill="#FFCC00"/>
<path d="M37.1545 18.0473H26.9141C26.7841 18.0473 26.6925 18.0198 26.6453 17.9619C26.5921 17.8979 26.5773 17.7852 26.598 17.6267L27.0145 14.5609C27.044 14.3537 26.9879 14.1556 26.8609 14.0063C26.7309 13.8539 26.5448 13.7686 26.3351 13.7686H24.3562C23.9397 13.7686 23.5675 14.0977 23.5114 14.5182L22.9975 18.2911C22.9295 18.7817 23.343 19.4461 23.7506 19.9002C24.1553 20.3786 24.8435 20.9363 25.449 20.9363H36.7971C37.4824 20.9363 37.6301 20.2689 37.7305 19.5253C37.8102 18.9371 37.8191 18.4922 37.6064 18.2393C37.5001 18.1113 37.3436 18.0473 37.1457 18.0473H37.1545Z" fill="#FFCC00"/>
<path d="M27.6348 8.21902H38.2533C38.9622 8.21902 39.1069 7.57904 39.2103 6.80802C39.293 6.20461 39.3019 5.80843 39.104 5.57378C38.9917 5.43968 38.8263 5.37569 38.5989 5.37569H28.7129C28.6272 5.37569 28.515 5.36045 28.4559 5.29036C28.3968 5.22026 28.3998 5.10751 28.4116 5.02218L28.642 3.32776C28.6774 3.06262 28.9314 2.84016 29.1943 2.84016H38.7495C39.4584 2.84016 39.6031 2.20018 39.7065 1.42916C39.7892 0.82575 39.7981 0.429573 39.6002 0.194915C39.4879 0.0608239 39.3225 -0.00317383 39.0951 -0.00317383H26.3322C25.9216 -0.00317383 25.5435 0.332053 25.4874 0.746514L24.8671 5.2995C24.7933 5.83891 25.2511 6.60079 25.6676 7.09448C26.152 7.63694 26.9731 8.21902 27.6348 8.21902Z" fill="#FFCC00"/>
<path d="M73.1453 7.41151C73.2428 7.23476 73.4377 7.1159 73.6268 7.1159H75.1243C75.2424 7.1159 75.3488 7.16162 75.4197 7.24695C75.4935 7.33228 75.523 7.45113 75.5053 7.57608L75.0327 11.0502C75.0061 11.2422 75.0475 11.4007 75.1509 11.5257C75.3842 11.7999 75.8982 11.8578 76.6011 11.8578C77.4311 11.8578 78.2493 11.7999 78.3438 11.0929L79.7114 1.04221C79.7409 0.825837 79.6848 0.624701 79.5548 0.469278C79.4278 0.316902 79.2417 0.234619 79.035 0.234619H77.245C76.8345 0.234619 76.4564 0.578988 76.3973 0.999545L76.0429 3.60517C76.0045 3.88249 75.7564 4.10801 75.4876 4.10801H74.2677C74.3327 3.61126 74.12 2.88291 73.7154 2.20941C73.2812 1.46277 72.7731 0.774029 71.9816 0.774029H66.7683C66.3518 0.774029 65.9796 1.10926 65.9206 1.53895L65.7493 2.80672C65.7197 3.02309 65.7758 3.22423 65.9058 3.37965C66.0328 3.53203 66.2189 3.61431 66.4257 3.61431H70.8355C70.9064 3.61431 71.0009 3.6265 71.0452 3.67831C71.0866 3.72707 71.0836 3.81849 71.0748 3.88859C71.0334 4.19943 70.9743 4.50418 70.9005 4.79675C70.8385 5.04359 70.5992 5.23864 70.357 5.23864H66.1628C65.7522 5.23864 65.3741 5.583 65.3151 6.00356L65.1438 7.27133C65.1142 7.4877 65.1703 7.68884 65.3003 7.84426C65.4273 7.99663 65.6134 8.07892 65.8201 8.07892H67.8346C68.0147 8.07892 68.1477 8.17339 68.2008 8.33796C68.254 8.50862 68.2097 8.75547 67.9882 8.92613C67.2025 9.52953 66.2514 10.1025 65.0788 10.6754C64.4053 11.0015 64.553 11.358 64.8809 12.1352L64.9518 12.3058C65.2796 13.089 65.4775 13.3877 65.8113 13.3877C65.9442 13.3877 66.1008 13.3389 66.2986 13.2566C69.2937 12.0011 71.7896 9.87086 73.1483 7.41151H73.1453Z" fill="#FFCC00"/>
<path d="M81.6874 19.2236C80.3317 18.5196 77.9333 17.1147 77.1092 15.6001C76.7341 14.8809 76.7548 14.247 76.8286 13.7198L76.8699 13.415C76.8995 13.1986 76.8434 12.9975 76.7134 12.8421C76.5864 12.6897 76.4003 12.6074 76.1935 12.6074H74.1437C73.7331 12.6074 73.355 12.9518 73.296 13.3723L73.2664 13.5826C73.169 14.2957 72.9415 14.826 72.5044 15.3593C71.2195 16.9197 68.7384 18.1295 67.0991 18.931L66.7004 19.1261C66.083 19.4369 66.275 19.9123 66.5438 20.5675C66.5793 20.6559 66.6177 20.7473 66.6561 20.8449C66.8924 21.4726 67.1287 21.8109 67.4181 21.9389C67.5038 21.9755 67.5894 21.9968 67.6839 21.9968C67.7932 21.9968 67.9114 21.9694 68.0384 21.9176C69.5034 21.2898 72.4424 19.7813 74.1673 18.1082C74.2855 17.9924 74.4479 17.9284 74.5897 17.9406C74.6665 17.9467 74.7758 17.9741 74.8585 18.0777C76.1049 19.6898 78.2907 21.1222 79.9034 21.8231C80.4498 22.0547 80.7718 21.8719 81.3921 20.9728L81.4423 20.8967C81.8912 20.2445 82.1187 19.9154 82.0478 19.6137C82.0005 19.4095 81.8203 19.2906 81.6874 19.2205V19.2236Z" fill="#FFCC00"/>
<path d="M84.3074 0.234414C84.1803 0.0820387 83.9943 -0.000244141 83.7875 -0.000244141H81.9267C81.5102 -0.000244141 81.138 0.334982 81.079 0.764682L79.4219 12.9273C79.3954 13.1163 79.4367 13.2717 79.5401 13.3966C79.7764 13.677 80.2992 13.7349 81.014 13.7349C81.8676 13.7349 82.7064 13.677 82.8039 12.97L84.4609 0.807347C84.4905 0.590974 84.4344 0.389838 84.3044 0.234414H84.3074Z" fill="#FFCC00"/>
<path d="M55.751 1.61803H45.2742C44.8578 1.61803 44.4856 1.95326 44.4265 2.38296L43.9687 5.74741C43.9185 6.10702 44.1223 6.42701 44.4561 6.52757C45.0763 6.71347 45.4308 7.28945 45.3392 7.9599C45.2477 8.63645 44.7071 9.24291 44.0219 9.43185C43.6763 9.52937 43.4105 9.82498 43.3632 10.1724L42.991 12.8999C42.9172 13.4332 43.3543 14.186 43.7885 14.7132C44.267 15.2648 46.2962 15.8682 46.9342 15.8682H53.775C54.4809 15.8682 54.6375 15.152 54.7467 14.3505C54.8324 13.7106 54.8442 13.2656 54.6315 13.0127C54.5223 12.8816 54.3598 12.8146 54.1471 12.8146H48.0862C48.0035 12.8146 47.8942 12.7994 47.8351 12.7293C47.7731 12.6561 47.776 12.5373 47.7878 12.4458L48.0153 10.7789C48.0537 10.5076 48.3077 10.276 48.5706 10.276H54.4927C55.1987 10.276 55.3552 9.55985 55.4645 8.75835C55.5501 8.11837 55.562 7.67344 55.3493 7.42049C55.24 7.28945 55.0776 7.22241 54.8649 7.22241H48.9427C48.8216 7.22241 48.7182 7.17669 48.6474 7.09136C48.5735 7.00603 48.544 6.88718 48.5617 6.76223L48.7803 5.16533C48.8157 4.89411 49.0727 4.6625 49.3356 4.6625H55.3759C56.0818 4.6625 56.2384 3.94633 56.3476 3.14483C56.4333 2.50486 56.4451 2.05992 56.2325 1.80697C56.1232 1.67593 55.9607 1.60889 55.748 1.60889L55.751 1.61803Z" fill="#FFCC00"/>
<path d="M62.8665 0.115723H60.8402C60.4297 0.115723 60.0516 0.460092 59.9925 0.880649L57.4346 19.6655C57.408 19.8575 57.4494 20.019 57.5587 20.144C57.8038 20.4365 58.3503 20.4944 59.0976 20.4944C60.1668 20.4944 60.8964 20.3573 60.9879 19.6808L63.5399 0.923314C63.5694 0.70694 63.5133 0.505804 63.3834 0.350381C63.2564 0.198006 63.0703 0.115723 62.8635 0.115723H62.8665Z" fill="#FFCC00"/>
<path d="M101.805 10.6633L93.7858 2.9257C93.5347 2.68495 93.1419 2.69714 92.9085 2.95617L91.2663 4.76944C91.0506 5.00715 91.0507 5.37285 91.2545 5.62275C92.1494 6.729 92.365 8.07295 91.7064 8.8013C91.0477 9.52966 89.7363 9.39557 88.6079 8.55141C88.348 8.35637 87.9936 8.38075 87.775 8.6215L86.1327 10.4348C85.8994 10.6908 85.9142 11.0961 86.1623 11.3368L94.1845 19.0775C94.4326 19.3183 94.8255 19.303 95.0588 19.047L101.838 11.5654C102.071 11.3094 102.056 10.9041 101.808 10.6633H101.805ZM91.1097 14.168C90.9384 14.3569 90.6489 14.3691 90.4629 14.1893C90.2768 14.0095 90.2679 13.7139 90.4422 13.5219L91.5026 12.3517C91.6739 12.1627 91.9633 12.1505 92.1494 12.3303C92.3355 12.5101 92.3444 12.8057 92.1701 12.9977L91.1097 14.168ZM93.452 11.5837C93.2807 11.7726 92.9912 11.7848 92.8051 11.605C92.6191 11.4252 92.6102 11.1296 92.7845 10.9376L93.8478 9.76737C94.0191 9.57842 94.3086 9.56623 94.4947 9.74603C94.6807 9.92584 94.6896 10.2214 94.5153 10.4134L93.452 11.5837ZM95.7943 8.99939C95.623 9.18834 95.3335 9.20053 95.1474 9.02073C94.9613 8.84092 94.9525 8.54531 95.1268 8.35332L96.1871 7.18308C96.3584 6.99413 96.6479 6.98194 96.834 7.16174C97.0201 7.34155 97.0289 7.63716 96.8547 7.82915L95.7943 8.99939Z" fill="#FFCC00"/>
</g>
<defs>
<clipPath id="clip0_1050_4293">
<rect width="102" height="22" fill="white"/>
</clipPath>
</defs>
</svg>
