<svg width="23" height="24" viewBox="0 0 23 24" fill="none" xmlns="http://www.w3.org/2000/svg">
<g clip-path="url(#clip0_3080_5458)">
<path d="M11.3468 0.5H11.6168C11.697 0.551095 11.7846 0.514599 11.8648 0.521898C12.3319 0.521898 12.6894 0.762774 13.0105 1.06934C13.4337 1.4708 13.835 1.89416 14.251 2.30292C16.9289 4.98175 19.5923 7.66058 22.2776 10.3248C22.9343 10.9745 23.0949 11.7263 22.9343 12.5803C22.7738 13.427 21.869 14.135 20.9496 14.1569C20.5409 14.1642 20.5628 14.1569 20.5628 14.5584C20.5628 16.7044 20.5628 18.8504 20.5628 20.9963C20.5628 22.1131 19.8623 23.0693 18.797 23.4197C18.578 23.4927 18.3591 23.5 18.1329 23.5C16.907 23.5 15.6812 23.5 14.4553 23.5C13.8934 23.5 13.6161 23.2299 13.6161 22.6606C13.6161 20.9234 13.6161 19.1934 13.6161 17.4562C13.6161 16.9453 13.3826 16.5876 12.9521 16.4124C12.7989 16.3467 12.6383 16.3175 12.4705 16.3175C11.8138 16.3175 11.157 16.3102 10.5003 16.3175C10.0552 16.3248 9.68306 16.4927 9.45685 16.9015C9.36199 17.0693 9.3474 17.2518 9.3474 17.4416C9.3474 19.135 9.3474 20.8212 9.3474 22.5146C9.3474 22.6533 9.3474 22.7993 9.31821 22.938C9.23065 23.2883 8.99714 23.4927 8.6323 23.4927C7.33344 23.4927 6.02728 23.4927 4.72843 23.4927C3.45876 23.4927 2.40799 22.2883 2.4007 21.0693C2.4007 19.0547 2.4007 17.0474 2.4007 15.0328C2.4007 14.865 2.4007 14.7044 2.4007 14.5365C2.4007 14.2883 2.27422 14.1618 2.02126 14.1569C1.1894 14.135 0.394035 13.573 0.0948604 12.7993C0.0291878 12.6387 0.0437817 12.4635 0 12.2956V11.6241C0.0583756 11.1131 0.313769 10.7117 0.678617 10.354C3.75793 7.28102 6.83725 4.19343 9.91656 1.11314C10.2522 0.777372 10.6317 0.521898 11.1279 0.521898C11.2008 0.514599 11.2738 0.543796 11.3468 0.5Z" fill="#E5E5E5"/>
</g>
<defs>
<clipPath id="clip0_3080_5458">
<rect width="23" height="23" fill="white" transform="translate(0 0.5)"/>
</clipPath>
</defs>
</svg>
