<svg width="14" height="14" viewBox="0 0 14 14" fill="none" xmlns="http://www.w3.org/2000/svg">
<g clip-path="url(#clip0_2263_20898)">
<path d="M14.0002 6.93278C13.9593 6.87828 13.9573 6.82378 14.0002 6.76929V6.93278Z" fill="#E5E5E5"/>
<path d="M14.0002 7.20524C13.9573 7.15074 13.9593 7.09625 14.0002 7.04175V7.20524Z" fill="#E5E5E5"/>
<path d="M13.9996 6.66034C13.9645 6.64088 13.9723 6.60779 13.9762 6.57665C13.984 6.56497 13.9918 6.56692 13.9996 6.57665V6.65839V6.66034Z" fill="#E5E5E5"/>
<path d="M13.9993 7.39791C13.9565 7.37066 13.9662 7.34341 13.9993 7.31616V7.39791Z" fill="#E5E5E5"/>
<path d="M6.56822 0.023356C6.54679 0.0272487 6.52147 0.0350341 6.51562 0H6.57017C6.57017 0 6.58186 0.011678 6.57796 0.0155707C6.57406 0.0194634 6.57212 0.023356 6.56822 0.023356Z" fill="#E5E5E5"/>
<path d="M14.0002 6.57867C14.0002 6.57867 13.9846 6.57867 13.9768 6.57867C13.9749 6.55726 13.9671 6.53196 14.0002 6.52612V6.58062V6.57867Z" fill="#E5E5E5"/>
<path d="M14.0001 6.44237C13.9709 6.29056 13.9826 6.1368 13.9611 5.98499C13.8462 5.15779 13.5832 4.37926 13.1859 3.64354C12.7534 2.84165 12.1827 2.15459 11.4814 1.57459C10.56 0.809676 9.50616 0.323092 8.33349 0.0895315C8.07441 0.0350341 7.81338 0.0350341 7.55235 0H7.47054C7.4647 0.0330877 7.43937 0.0272487 7.41795 0.023356C7.40041 0.023356 7.38093 0.023356 7.3634 0.023356C7.34587 0.023356 7.32639 0.023356 7.30886 0.023356C7.28548 0.0272487 7.26406 0.023356 7.25237 0H6.76148C6.742 0.0330877 6.70889 0.0272487 6.67772 0.0253024C6.66019 0.0253024 6.64071 0.0253024 6.62318 0.0253024C6.60565 0.0253024 6.58617 0.0253024 6.56863 0.0253024C6.56863 0.0214097 6.56863 0.0194634 6.56863 0.0155707C6.54915 0.0155707 6.52967 0.017517 6.51409 0.00194634H6.43228C6.29397 0.0311414 6.15372 0.0194634 6.01541 0.0369804C5.09208 0.163492 4.22913 0.467121 3.42852 0.940081C2.72531 1.3566 2.11365 1.88211 1.59159 2.51077C0.863054 3.38663 0.381908 4.3851 0.134517 5.49645C-0.0135283 6.16016 -0.0115803 6.83164 0.0117952 7.50507C0.0449105 8.45099 0.317625 9.33268 0.736437 10.1696C1.1046 10.9034 1.59938 11.5437 2.19936 12.1082C2.81686 12.6882 3.51813 13.1339 4.29341 13.4706C5.39791 13.9513 6.56084 14.0642 7.74325 13.9689C8.75619 13.8871 9.69901 13.5582 10.5756 13.0424C11.2885 12.6239 11.906 12.0926 12.432 11.4542C13.1566 10.5744 13.6378 9.57598 13.8832 8.46267C13.9495 8.16488 13.9709 7.8632 14.0001 7.56152V7.39803C13.9787 7.37078 13.9787 7.34353 14.0001 7.31628V7.20728C13.9787 7.15279 13.9787 7.09829 14.0001 7.04379V6.9348C13.9787 6.8803 13.9787 6.8258 14.0001 6.77131V6.66231C13.9787 6.6409 13.9884 6.61171 13.9865 6.5864C13.9865 6.56499 13.9826 6.54358 14.0001 6.52607V6.44432V6.44237ZM6.99913 12.9976C3.67591 12.9879 0.987724 10.2981 0.99162 6.98346C0.995516 3.66495 3.6876 0.977061 7.00693 0.977061C10.3321 0.977061 13.0339 3.68247 13.0222 6.99708C13.0105 10.3214 10.3146 13.0054 7.00108 12.9976H6.99913Z" fill="#BDBDBD"/>
<path d="M6.87859 3.47997C7.2935 3.48192 7.65777 3.54226 8.00256 3.7038C8.83434 4.09696 9.11485 4.9514 8.67656 5.75913C8.48371 6.11337 8.2071 6.39364 7.89737 6.64277C7.81166 6.71089 7.7279 6.78096 7.64998 6.85687C7.45518 7.03982 7.35779 7.26949 7.3422 7.53419C7.34025 7.57896 7.33831 7.62567 7.33831 7.67044C7.33831 7.84366 7.35973 8.03051 7.17078 8.12588C6.95261 8.23487 6.7208 8.24071 6.49679 8.14923C6.36043 8.09474 6.31757 7.95849 6.30394 7.8242C6.23966 7.14687 6.41302 6.56492 6.97404 6.13478C7.12598 6.018 7.27402 5.89732 7.41622 5.77081C7.54869 5.65209 7.65193 5.50806 7.69868 5.32899C7.78439 5.00785 7.65193 4.73731 7.3461 4.60885C6.86106 4.40448 6.34485 4.54462 6.0546 4.96114C5.8598 5.24141 5.67864 5.30174 5.40982 5.17913C5.16049 5.06624 5.04945 4.80932 5.13711 4.51348C5.26568 4.08334 5.5793 3.82837 5.97278 3.65514C6.27277 3.52474 6.59224 3.47803 6.87859 3.47803V3.47997Z" fill="#BDBDBD"/>
<path d="M7.50606 9.54882C7.50606 9.93809 7.18075 10.2631 6.79505 10.2592C6.41325 10.2553 6.10158 9.9342 6.10352 9.54493C6.10547 9.15566 6.41909 8.8423 6.80479 8.84425C7.19049 8.84619 7.50411 9.16345 7.50606 9.55077V9.54882Z" fill="#BDBDBD"/>
</g>
<defs>
<clipPath id="clip0_2263_20898">
<rect width="14" height="14" fill="white"/>
</clipPath>
</defs>
</svg>
