<svg width="15" height="15" viewBox="0 0 15 15" fill="none" xmlns="http://www.w3.org/2000/svg">
<g clip-path="url(#clip0_2918_15998)">
<path d="M6.79159 14.996C5.4064 14.996 4.02319 14.9999 2.63799 14.996C1.36741 14.9901 0.339876 14.1662 0.0573047 12.9372C0.00988012 12.7337 0 12.5283 0 12.3208C0 9.56857 0 6.81633 0 4.06409C0 2.72255 0.861547 1.68329 2.17363 1.43237C2.31788 1.40471 2.46608 1.39286 2.6123 1.39286C3.9481 1.3889 5.28389 1.3889 6.61968 1.39286C7.00501 1.39286 7.25991 1.69712 7.17494 2.04288C7.11764 2.27602 6.91806 2.43408 6.6592 2.43606C6.27783 2.44001 5.89646 2.43606 5.51508 2.43606C4.56659 2.43606 3.6181 2.43211 2.66961 2.43606C1.85351 2.44001 1.22316 2.95173 1.07298 3.72821C1.05124 3.84478 1.04927 3.96728 1.04927 4.08582C1.04927 6.82818 1.04927 9.56857 1.04927 12.3109C1.04927 13.1348 1.52944 13.7572 2.29614 13.9232C2.43249 13.9528 2.57674 13.9587 2.71901 13.9587C5.44395 13.9587 8.17086 13.9607 10.8958 13.9587C11.7238 13.9587 12.3462 13.4865 12.524 12.7239C12.5596 12.5757 12.5655 12.4216 12.5655 12.2694C12.5655 10.9714 12.5655 9.67526 12.5655 8.37718C12.5655 8.01364 12.8165 7.7805 13.1524 7.81804C13.4212 7.84768 13.6089 8.07489 13.6109 8.38311C13.6128 9.09241 13.6168 9.79973 13.6109 10.509C13.6049 11.2282 13.6464 11.9494 13.5891 12.6666C13.4903 13.8994 12.3996 14.9585 11.1606 14.9841C9.83072 15.0118 8.50086 14.994 7.17099 14.996C7.0465 14.996 6.92004 14.996 6.79555 14.996H6.79159Z" fill="#BDBDBD"/>
<path d="M3.4977 10.4992C3.56094 9.82153 3.62219 9.14385 3.69135 8.46616C3.721 8.1856 3.85141 7.95049 4.05099 7.75093C5.95983 5.83839 7.86867 3.92388 9.77553 2.00936C9.85853 1.9244 9.90002 1.93626 9.97709 2.01331C10.977 3.017 11.9788 4.01871 12.9826 5.01648C13.0696 5.10143 13.0696 5.14292 12.9826 5.22986C11.0797 7.12659 9.18075 9.0253 7.28179 10.926C7.04467 11.1631 6.77 11.3014 6.43408 11.331C5.78792 11.3863 5.14373 11.4535 4.49757 11.5128C3.88105 11.5701 3.45028 11.1295 3.4977 10.4972V10.4992Z" fill="#BDBDBD"/>
<path d="M15.0009 2.3808C15.0009 2.93599 14.8112 3.38053 14.4515 3.75395C14.2697 3.94362 14.08 4.12342 13.9002 4.31309C13.839 4.37632 13.8054 4.36841 13.7481 4.30914C12.7324 3.28965 11.7147 2.27213 10.6951 1.25659C10.6319 1.19336 10.62 1.15977 10.6912 1.0926C10.867 0.928609 11.031 0.754742 11.203 0.586802C11.9973 -0.195601 13.1731 -0.195601 13.9694 0.586802C14.1512 0.766596 14.333 0.948367 14.5049 1.13606C14.8369 1.49565 14.9969 1.92439 15.0009 2.37882V2.3808Z" fill="#BDBDBD"/>
</g>
<defs>
<clipPath id="clip0_2918_15998">
<rect width="15" height="15" fill="white"/>
</clipPath>
</defs>
</svg>
