<svg width="7" height="14" viewBox="0 0 7 14" fill="none" xmlns="http://www.w3.org/2000/svg">
<g clip-path="url(#clip0_605_1871)">
<path d="M6.47823 0C6.61291 0.0655106 6.74934 0.123314 6.84729 0.256262C7.03795 0.516378 7.04669 0.874759 6.85779 1.13873C6.81931 1.19268 6.77558 1.24085 6.73185 1.28902C5.0387 3.15414 3.34554 5.02119 1.64889 6.88439C1.55619 6.98651 1.57018 7.03083 1.65414 7.12139C3.35604 8.99037 5.05444 10.8632 6.75459 12.736C7.00646 13.0135 7.06418 13.3276 6.92076 13.6262C6.73535 14.0116 6.27533 14.1214 5.96398 13.8516C5.91851 13.8131 5.87653 13.7669 5.8363 13.7225C3.97698 11.6724 2.11591 9.62428 0.25484 7.57418C-0.0879889 7.19653 -0.0862398 6.79961 0.260087 6.42004C2.08268 4.41426 3.90526 2.40655 5.7261 0.398844C5.87478 0.235067 6.02345 0.0732177 6.22985 0H6.47823Z" fill="#222222"/>
</g>
<defs>
<clipPath id="clip0_605_1871">
<rect width="7" height="14" fill="white"/>
</clipPath>
</defs>
</svg>
