<svg width="24" height="24" viewBox="0 0 24 24" fill="none" xmlns="http://www.w3.org/2000/svg">
<g clip-path="url(#clip0_345_1736)">
<path d="M19.0377 0.5H4.96228C2.50389 0.5 0.5 2.50389 0.5 4.96228V19.0377C0.5 21.4961 2.50389 23.5 4.96228 23.5H19.0377C21.4961 23.5 23.5 21.4961 23.5 19.0377V4.96228C23.5 2.50389 21.4961 0.5 19.0377 0.5ZM21.985 4.96228V19.0377C21.985 20.6629 20.6629 21.985 19.0377 21.985H4.96228C3.33713 21.985 2.01497 20.6629 2.01497 19.0377V4.96228C2.01497 3.33713 3.33713 2.01497 4.96228 2.01497H19.0377C20.6629 2.01497 21.985 3.33713 21.985 4.96228Z" fill="#E5E5E5"/>
<path d="M18.2666 6.20868H5.73367C5.2723 6.20868 4.89355 6.58742 4.89355 7.0488C4.89355 7.51018 5.2723 7.88892 5.73367 7.88892H18.2666C18.728 7.88892 19.1067 7.51018 19.1067 7.0488C19.1067 6.58742 18.728 6.20868 18.2666 6.20868Z" fill="#E5E5E5"/>
<path d="M18.2666 11.1599H5.73367C5.2723 11.1599 4.89355 11.5386 4.89355 12C4.89355 12.4613 5.2723 12.8401 5.73367 12.8401H18.2666C18.728 12.8401 19.1067 12.4613 19.1067 12C19.1067 11.5386 18.728 11.1599 18.2666 11.1599Z" fill="#E5E5E5"/>
<path d="M18.2666 16.1111H5.73367C5.2723 16.1111 4.89355 16.4898 4.89355 16.9512C4.89355 17.4126 5.2723 17.7913 5.73367 17.7913H18.2666C18.728 17.7913 19.1067 17.4126 19.1067 16.9512C19.1067 16.4898 18.728 16.1111 18.2666 16.1111Z" fill="#E5E5E5"/>
</g>
<defs>
<clipPath id="clip0_345_1736">
<rect width="23" height="23" fill="white" transform="translate(0.5 0.5)"/>
</clipPath>
</defs>
</svg>
