<svg width="23" height="23" viewBox="0 0 23 23" fill="none" xmlns="http://www.w3.org/2000/svg">
<g clip-path="url(#clip0_223_3374)">
<path d="M18.5377 0H4.46228C2.00389 0 0 2.00389 0 4.46228V18.5377C0 20.9961 2.00389 23 4.46228 23H18.5377C20.9961 23 23 20.9961 23 18.5377V4.46228C23 2.00389 20.9961 0 18.5377 0ZM21.485 4.46228V18.5377C21.485 20.1629 20.1629 21.485 18.5377 21.485H4.46228C2.83713 21.485 1.51497 20.1629 1.51497 18.5377V4.46228C1.51497 2.83713 2.83713 1.51497 4.46228 1.51497H18.5377C20.1629 1.51497 21.485 2.83713 21.485 4.46228Z" fill="#F2AE00"/>
<path d="M17.7666 5.70868H5.23367C4.7723 5.70868 4.39355 6.08742 4.39355 6.5488C4.39355 7.01018 4.7723 7.38892 5.23367 7.38892H17.7666C18.228 7.38892 18.6067 7.01018 18.6067 6.5488C18.6067 6.08742 18.228 5.70868 17.7666 5.70868Z" fill="#F2AE00"/>
<path d="M17.7666 10.6599H5.23367C4.7723 10.6599 4.39355 11.0386 4.39355 11.5C4.39355 11.9613 4.7723 12.3401 5.23367 12.3401H17.7666C18.228 12.3401 18.6067 11.9613 18.6067 11.5C18.6067 11.0386 18.228 10.6599 17.7666 10.6599Z" fill="#F2AE00"/>
<path d="M17.7666 15.6111H5.23367C4.7723 15.6111 4.39355 15.9898 4.39355 16.4512C4.39355 16.9126 4.7723 17.2913 5.23367 17.2913H17.7666C18.228 17.2913 18.6067 16.9126 18.6067 16.4512C18.6067 15.9898 18.228 15.6111 17.7666 15.6111Z" fill="#F2AE00"/>
</g>
<defs>
<clipPath id="clip0_223_3374">
<rect width="23" height="23" fill="white"/>
</clipPath>
</defs>
</svg>
