<svg width="18" height="24" viewBox="0 0 18 24" fill="none" xmlns="http://www.w3.org/2000/svg">
<g clip-path="url(#clip0_3080_5487)">
<path d="M16.0207 3.40446C13.5464 0.23129 9.11239 -0.883608 5.45696 0.739262C1.43863 2.52046 -0.712395 6.78874 0.211359 11.1032C0.607254 12.9504 1.35285 14.659 2.3096 16.2753C3.89318 18.9537 5.88585 21.3088 8.12925 23.4594C8.34039 23.6639 8.54494 23.8751 8.82206 24.0004H9.19816C9.4225 23.8948 9.60725 23.7299 9.78541 23.5584C11.8902 21.5529 13.7773 19.3627 15.3279 16.8954C16.377 15.2263 17.2414 13.4715 17.6967 11.5386C18.3961 8.56994 17.9144 5.83877 16.0273 3.41106L16.0207 3.40446ZM8.97382 14.0059C6.20916 13.9729 3.97236 11.7101 3.99875 8.96576C4.03174 6.2016 6.30813 3.95861 9.03981 3.9982C11.7979 4.03778 14.0215 6.28737 14.0017 9.02513C13.9819 11.7827 11.7055 14.0389 8.97382 14.0059Z" fill="#E5E5E5"/>
</g>
<defs>
<clipPath id="clip0_3080_5487">
<rect width="18" height="24" fill="white"/>
</clipPath>
</defs>
</svg>
