<svg width="19" height="24" viewBox="0 0 19 24" fill="none" xmlns="http://www.w3.org/2000/svg">
<g clip-path="url(#clip0_345_1730)">
<path d="M16.5208 3.40428C14.0465 0.231107 9.61248 -0.883791 5.95705 0.739079C1.93872 2.52028 -0.212303 6.78856 0.711451 11.103C1.10735 12.9502 1.85295 14.6588 2.80969 16.2751C4.39327 18.9535 6.38594 21.3086 8.62934 23.4593C8.84048 23.6638 9.04503 23.8749 9.32215 24.0002H9.69825C9.9226 23.8947 10.1073 23.7297 10.2855 23.5582C12.3903 21.5527 14.2774 19.3625 15.828 16.8952C16.8771 15.2262 17.7415 13.4713 18.1968 11.5384C18.8962 8.56976 18.4145 5.83858 16.5274 3.41088L16.5208 3.40428ZM9.47392 14.0057C6.70925 13.9727 4.47245 11.7099 4.49884 8.96558C4.53183 6.20142 6.80823 3.95843 9.5399 3.99801C12.298 4.03759 14.5216 6.28718 14.5018 9.02495C14.482 11.7825 12.2056 14.0387 9.47392 14.0057Z" fill="#E5E5E5"/>
</g>
<defs>
<clipPath id="clip0_345_1730">
<rect width="18" height="24" fill="white" transform="translate(0.5)"/>
</clipPath>
</defs>
</svg>
