<svg width="11" height="14" viewBox="0 0 11 14" fill="none" xmlns="http://www.w3.org/2000/svg">
<g id="location_2" clip-path="url(#clip0_2055_8041)">
<path id="Vector" d="M9.78958 1.98639C8.27772 0.135481 5.56846 -0.514839 3.33494 0.431781C0.87968 1.47075 -0.434632 3.96044 0.129796 6.47707C0.371694 7.55452 0.827268 8.55116 1.41185 9.49393C2.37945 11.0562 3.597 12.43 4.96775 13.6845C5.09676 13.8037 5.22174 13.9269 5.39107 14H5.62088C5.75795 13.9384 5.87084 13.8422 5.97969 13.7422C7.26578 12.5724 8.41883 11.2948 9.36626 9.85565C10.0073 8.8821 10.5354 7.85851 10.8136 6.73104C11.241 4.99941 10.9467 3.40632 9.79361 1.99024L9.78958 1.98639ZM5.4838 8.17021C3.79455 8.15097 2.42782 6.83109 2.44395 5.2303C2.46411 3.61796 3.85502 2.30963 5.52412 2.33272C7.20934 2.35581 8.568 3.66799 8.5559 5.26493C8.54381 6.87341 7.15289 8.18945 5.4838 8.17021Z" fill="#FFCC00"/>
</g>
<defs>
<clipPath id="clip0_2055_8041">
<rect width="11" height="14" fill="white"/>
</clipPath>
</defs>
</svg>
