<svg width="18" height="24" viewBox="0 0 18 24" fill="none" xmlns="http://www.w3.org/2000/svg">
<g clip-path="url(#clip0_223_3372)">
<path d="M16.0193 3.40524C13.5454 0.232254 9.11203 -0.882581 5.45718 0.740196C1.43948 2.52129 -0.711216 6.78933 0.212394 11.1035C0.608227 12.9506 1.35371 14.6591 2.31031 16.2753C3.89364 18.9536 5.886 21.3086 8.12905 23.4591C8.34016 23.6636 8.54467 23.8747 8.82176 24H9.1978C9.4221 23.8945 9.60682 23.7295 9.78495 23.558C11.8895 21.5526 13.7763 19.3626 15.3266 16.8954C16.3756 15.2264 17.2398 13.4717 17.695 11.5389C18.3943 8.57043 17.9127 5.83941 16.0259 3.41184L16.0193 3.40524ZM8.97349 14.0061C6.20926 13.9731 3.9728 11.7104 3.99919 8.96622C4.03218 6.20223 6.30822 3.95936 9.03946 3.99894C11.7971 4.03852 14.0204 6.28798 14.0006 9.02559C13.9808 11.783 11.7047 14.0391 8.97349 14.0061Z" fill="#F2AE00"/>
</g>
<defs>
<clipPath id="clip0_223_3372">
<rect width="18" height="24" fill="white"/>
</clipPath>
</defs>
</svg>
