<svg width="159" height="34" viewBox="0 0 159 34" fill="none" xmlns="http://www.w3.org/2000/svg">
<g clip-path="url(#clip0_480_6396)">
<path d="M31.1617 11.9489H17.1509C16.9575 11.9489 16.7917 11.8782 16.6812 11.7463C16.5707 11.6192 16.5293 11.4496 16.5523 11.2659L16.9621 8.29877C17.0081 7.9785 16.9207 7.67236 16.7227 7.44158C16.5201 7.20609 16.23 7.07422 15.9031 7.07422H12.7446C12.1046 7.07422 11.5152 7.5923 11.4277 8.23283L11.018 11.2C10.9627 11.6145 10.5759 11.9536 10.157 11.9536H1.55614C0.916144 11.9536 0.326795 12.4716 0.239313 13.1122L0.00909867 14.7653C-0.0369443 15.0856 0.0505373 15.3917 0.248522 15.6225C0.451111 15.858 0.741181 15.9899 1.06809 15.9899H30.6691C31.7097 15.9899 31.9905 15.3258 32.1701 14.0212C32.2806 13.2158 32.2944 12.6082 31.9951 12.2597C31.8155 12.0478 31.5485 11.9489 31.1571 11.9489H31.1617Z" fill="#FFCC00"/>
<path d="M25.1256 17.6052H5.15681C4.5076 17.6052 3.92746 18.1139 3.83998 18.7638L3.60516 20.4594C3.55912 20.7796 3.6466 21.0858 3.84458 21.3165C4.04717 21.552 4.33724 21.6839 4.66415 21.6839H20.2128C20.4062 21.6839 20.572 21.7546 20.6825 21.8864C20.793 22.0136 20.8344 22.1831 20.8114 22.3668C20.7561 22.7766 20.3602 23.1204 19.9504 23.1204H4.3971C3.74789 23.1204 3.16775 23.629 3.08027 24.279L2.44027 28.9464C2.31596 29.8366 3.15394 30.868 3.66502 31.4049C4.13465 31.8947 5.07393 32.7142 6.08687 32.7142H24.5869C25.5907 32.7142 25.784 31.8806 25.9452 30.7079C26.0695 29.7989 26.0833 29.2431 25.8071 28.9134C25.6459 28.725 25.4111 28.6356 25.0842 28.6356H8.20024C8.05291 28.6356 8.01147 28.6026 8.00226 28.5932C7.98384 28.5696 7.97003 28.499 7.98384 28.3765L8.05291 27.882C8.10816 27.4675 8.49492 27.1284 8.91391 27.1284H24.4672C25.1164 27.1284 25.6966 26.6198 25.784 25.9698L26.7003 19.2866C26.7786 18.7073 26.7095 18.307 26.4747 18.0338C26.2214 17.7371 25.8025 17.6052 25.121 17.6052H25.1256Z" fill="#FFCC00"/>
<path d="M7.41285 4.32376H22.4551C22.6899 4.32376 22.8326 4.35673 22.8879 4.42267C22.9431 4.48861 22.9569 4.6299 22.9293 4.83242L22.2571 9.71177C22.2156 10.0085 22.2801 10.2581 22.4505 10.4559C22.782 10.8468 23.468 11.007 24.8079 11.007C26.1477 11.007 27.5612 10.9128 27.7132 9.7777L28.4453 4.44151C28.5558 3.63142 27.8973 2.48223 27.1929 1.70512C26.4516 0.885614 25.1762 0.00488281 24.1218 0.00488281H7.94234C7.30234 0.00488281 6.71299 0.52296 6.62551 1.16349L6.35846 3.10864C6.31242 3.4289 6.3999 3.73504 6.59789 3.96582C6.80048 4.20131 7.09055 4.33318 7.41285 4.33318V4.32376Z" fill="#FFCC00"/>
<path d="M63.8845 15.2363H34.3894C33.7494 15.2363 33.16 15.7544 33.0725 16.3949L32.8055 18.3401C32.7594 18.6603 32.8469 18.9665 33.0449 19.1973C33.2475 19.4328 33.5376 19.5646 33.8645 19.5646H63.3596C64.6073 19.5646 64.8145 18.731 64.9895 17.4546C65.1138 16.5409 65.1276 15.9428 64.8191 15.5801C64.6211 15.3494 64.3265 15.241 63.8891 15.241L63.8845 15.2363Z" fill="#FFCC00"/>
<path d="M57.9174 27.8914H41.9543C41.7517 27.8914 41.609 27.849 41.5353 27.7595C41.4524 27.6606 41.4294 27.4863 41.4616 27.2414L42.1108 22.5034C42.1569 22.1831 42.0694 21.877 41.8714 21.6462C41.6688 21.4107 41.3788 21.2788 41.0519 21.2788H37.967C37.3178 21.2788 36.7376 21.7875 36.6502 22.4374L35.849 28.2681C35.7431 29.0264 36.3877 30.0532 37.0231 30.7549C37.6539 31.4944 38.7267 32.3562 39.6706 32.3562H57.3603C58.4285 32.3562 58.6587 31.3248 58.8152 30.1756C58.9395 29.2666 58.9533 28.579 58.6218 28.1881C58.4561 27.9903 58.2121 27.8914 57.9036 27.8914H57.9174Z" fill="#FFCC00"/>
<path d="M43.0777 12.7024H59.6302C60.7352 12.7024 60.9608 11.7133 61.122 10.5217C61.2509 9.58921 61.2647 8.97694 60.9562 8.61428C60.7812 8.40705 60.5234 8.30815 60.1689 8.30815H44.7583C44.6248 8.30815 44.4498 8.2846 44.3577 8.17627C44.2657 8.06795 44.2703 7.89368 44.2887 7.76181L44.6478 5.14317C44.7031 4.73341 45.099 4.3896 45.5088 4.3896H60.4037C61.5087 4.3896 61.7343 3.40054 61.8955 2.20896C62.0244 1.27643 62.0382 0.664152 61.7297 0.301498C61.5548 0.094267 61.2969 -0.00463867 60.9424 -0.00463867H41.0473C40.4073 -0.00463867 39.8179 0.513439 39.7304 1.15397L38.7635 8.1904C38.6484 9.02403 39.3621 10.2015 40.0113 10.9645C40.7664 11.8028 42.0464 12.7024 43.0777 12.7024Z" fill="#FFCC00"/>
<path d="M114.021 11.4544C114.173 11.1812 114.477 10.9975 114.771 10.9975H117.106C117.29 10.9975 117.455 11.0682 117.566 11.2C117.681 11.3319 117.727 11.5156 117.7 11.7087L116.963 17.0778C116.921 17.3746 116.986 17.6195 117.147 17.8126C117.511 18.2365 118.312 18.3259 119.408 18.3259C120.701 18.3259 121.977 18.2365 122.124 17.1438L124.256 1.61089C124.302 1.27649 124.215 0.965646 124.012 0.725447C123.814 0.489957 123.524 0.362793 123.202 0.362793H120.411C119.771 0.362793 119.182 0.895 119.09 1.54495L118.537 5.57182C118.478 6.00041 118.091 6.34894 117.672 6.34894H115.77C115.872 5.58124 115.54 4.4556 114.909 3.41474C114.232 2.26084 113.441 1.19643 112.207 1.19643H104.08C103.431 1.19643 102.851 1.7145 102.759 2.37858L102.492 4.33786C102.445 4.67225 102.533 4.9831 102.736 5.2233C102.934 5.45879 103.224 5.58595 103.546 5.58595H110.42C110.531 5.58595 110.678 5.60479 110.747 5.68486C110.811 5.76022 110.807 5.90151 110.793 6.00983C110.729 6.49023 110.637 6.96121 110.521 7.41335C110.425 7.79485 110.052 8.09627 109.674 8.09627H103.136C102.496 8.09627 101.907 8.62848 101.815 9.27843L101.548 11.2377C101.502 11.5721 101.589 11.8829 101.792 12.1231C101.99 12.3586 102.28 12.4858 102.602 12.4858H105.742C106.023 12.4858 106.23 12.6318 106.313 12.8861C106.396 13.1499 106.327 13.5314 105.982 13.7951C104.757 14.7277 103.274 15.6131 101.446 16.4985C100.397 17.0025 100.627 17.5535 101.138 18.7545L101.248 19.0183C101.759 20.2287 102.068 20.6903 102.588 20.6903C102.795 20.6903 103.039 20.6149 103.348 20.4877C108.017 18.5473 111.907 15.2552 114.025 11.4544H114.021Z" fill="#FFCC00"/>
<path d="M127.336 29.7093C125.223 28.6214 121.484 26.4502 120.2 24.1094C119.615 22.9979 119.647 22.0182 119.762 21.2035L119.827 20.7325C119.873 20.3981 119.785 20.0872 119.583 19.847C119.385 19.6115 119.095 19.4844 118.772 19.4844H115.577C114.937 19.4844 114.348 20.0166 114.255 20.6665L114.209 20.9915C114.057 22.0936 113.703 22.9131 113.021 23.7373C111.019 26.1487 107.151 28.0185 104.596 29.2572L103.974 29.5586C103.012 30.039 103.311 30.7737 103.73 31.7864C103.785 31.9229 103.845 32.0642 103.905 32.2149C104.273 33.1852 104.642 33.708 105.093 33.9058C105.226 33.9623 105.36 33.9952 105.507 33.9952C105.678 33.9952 105.862 33.9529 106.06 33.8728C108.344 32.9026 112.925 30.5712 115.614 27.9856C115.798 27.8066 116.051 27.7077 116.272 27.7265C116.392 27.7359 116.562 27.7783 116.691 27.9385C118.634 30.4299 122.041 32.6435 124.555 33.7268C125.407 34.0847 125.909 33.8021 126.876 32.4128L126.954 32.295C127.654 31.2871 128.008 30.7785 127.898 30.3122C127.824 29.9966 127.543 29.813 127.336 29.7046V29.7093Z" fill="#FFCC00"/>
<path d="M131.42 0.362654C131.222 0.127164 130.932 0 130.61 0H127.709C127.06 0 126.48 0.518077 126.388 1.18216L123.805 19.9789C123.763 20.271 123.828 20.5112 123.989 20.7043C124.357 21.1376 125.172 21.227 126.286 21.227C127.617 21.227 128.925 21.1376 129.077 20.0449L131.66 1.2481C131.706 0.9137 131.618 0.602854 131.416 0.362654H131.42Z" fill="#FFCC00"/>
<path d="M86.9059 2.50095H70.5745C69.9253 2.50095 69.3451 3.01902 69.253 3.6831L68.5394 8.88272C68.4611 9.43847 68.7788 9.933 69.2991 10.0884C70.266 10.3757 70.8185 11.2659 70.6758 12.302C70.533 13.3476 69.6904 14.2848 68.6223 14.5769C68.0836 14.7276 67.6692 15.1844 67.5955 15.7213L67.0154 19.9366C66.9003 20.7608 67.5817 21.9241 68.2585 22.7389C69.0044 23.5914 72.1676 24.5239 73.1621 24.5239H83.8256C84.9261 24.5239 85.1701 23.4171 85.3404 22.1785C85.474 21.1894 85.4924 20.5018 85.1609 20.1109C84.9905 19.9083 84.7373 19.8047 84.4058 19.8047H74.9578C74.8288 19.8047 74.6585 19.7812 74.5664 19.6729C74.4697 19.5598 74.4743 19.3761 74.4927 19.2348L74.8473 16.6586C74.9071 16.2394 75.3031 15.8815 75.7129 15.8815H84.9445C86.0449 15.8815 86.2889 14.7747 86.4593 13.536C86.5928 12.5469 86.6112 11.8593 86.2797 11.4684C86.1094 11.2659 85.8561 11.1623 85.5246 11.1623H76.293C76.1042 11.1623 75.9431 11.0916 75.8326 10.9597C75.7175 10.8279 75.6714 10.6442 75.6991 10.4511L76.0398 7.98315C76.095 7.56397 76.4956 7.20603 76.9054 7.20603H86.3212C87.4216 7.20603 87.6656 6.09923 87.836 4.86055C87.9695 3.8715 87.9879 3.18387 87.6564 2.79295C87.486 2.59043 87.2328 2.48682 86.9013 2.48682L86.9059 2.50095Z" fill="#FFCC00"/>
<path d="M97.9976 0.178955H94.8391C94.1991 0.178955 93.6098 0.711162 93.5177 1.36111L89.5303 30.3923C89.4889 30.689 89.5534 30.9386 89.7237 31.1317C90.1059 31.5839 90.9577 31.6733 92.1226 31.6733C93.7893 31.6733 94.9266 31.4614 95.0693 30.4158L99.0474 1.42705C99.0935 1.09266 99.006 0.781809 98.8034 0.541609C98.6054 0.30612 98.3153 0.178955 97.993 0.178955H97.9976Z" fill="#FFCC00"/>
<path d="M158.696 16.4797L146.195 4.52151C145.804 4.14944 145.192 4.16828 144.828 4.56861L142.268 7.37094C141.932 7.7383 141.932 8.30348 142.25 8.68968C143.645 10.3993 143.981 12.4764 142.954 13.602C141.927 14.7276 139.883 14.5204 138.124 13.2158C137.719 12.9144 137.166 12.952 136.826 13.3241L134.266 16.1264C133.902 16.5221 133.925 17.1485 134.312 17.5205L146.817 29.4834C147.204 29.8555 147.816 29.8319 148.18 29.4363L158.747 17.8738C159.11 17.4782 159.087 16.8518 158.701 16.4797H158.696ZM142.024 21.8959C141.757 22.188 141.306 22.2068 141.016 21.9289C140.726 21.651 140.712 21.1942 140.983 20.8975L142.636 19.0889C142.903 18.7969 143.355 18.7781 143.645 19.0559C143.935 19.3338 143.949 19.7907 143.677 20.0874L142.024 21.8959ZM145.675 17.902C145.408 18.194 144.957 18.2129 144.667 17.935C144.377 17.6571 144.363 17.2003 144.635 16.9036L146.292 15.095C146.559 14.803 147.01 14.7842 147.3 15.062C147.591 15.3399 147.604 15.7968 147.333 16.0935L145.675 17.902ZM149.326 13.9081C149.059 14.2001 148.608 14.219 148.318 13.9411C148.028 13.6632 148.014 13.2064 148.286 12.9097L149.939 11.1011C150.206 10.8091 150.657 10.7902 150.947 11.0681C151.237 11.346 151.251 11.8029 150.979 12.0996L149.326 13.9081Z" fill="#FFCC00"/>
</g>
<defs>
<clipPath id="clip0_480_6396">
<rect width="159" height="34" fill="white"/>
</clipPath>
</defs>
</svg>
