<svg width="152" height="30" viewBox="0 0 152 30" fill="none" xmlns="http://www.w3.org/2000/svg">
<g clip-path="url(#clip0_125_442)">
<path d="M29.7905 10.5433H16.3966C16.2166 10.5433 16.0536 10.4796 15.9467 10.3628C15.8455 10.2513 15.8005 10.0973 15.823 9.93805L16.211 7.32082C16.2504 7.03945 16.1716 6.7687 15.9861 6.56697C15.7949 6.35993 15.5194 6.24313 15.2045 6.24313H12.185C11.5721 6.24313 11.0098 6.69969 10.9254 7.26242L10.5374 9.87966C10.4812 10.246 10.1157 10.5433 9.71647 10.5433H1.49008C0.877172 10.5433 0.314876 10.9998 0.230531 11.5625L0.0112357 13.0278C-0.0281251 13.3091 0.0505964 13.5799 0.236154 13.7816C0.427335 13.9887 0.70286 14.1055 1.01775 14.1055H29.3181C30.3134 14.1055 30.5833 13.5215 30.752 12.3695C30.8588 11.6581 30.8701 11.1219 30.5833 10.814C30.409 10.6282 30.156 10.5433 29.7848 10.5433H29.7905Z" fill="#F2AE00"/>
<path d="M24.0213 15.5335H4.93135C4.31282 15.5335 3.75615 15.9848 3.6718 16.5528L3.44689 18.0499C3.40752 18.3313 3.48625 18.602 3.6718 18.8038C3.86298 19.0108 4.13851 19.1276 4.4534 19.1276H19.3205C19.5005 19.1276 19.6635 19.1913 19.7704 19.3081C19.8716 19.4196 19.9165 19.5735 19.8941 19.7328C19.8378 20.0938 19.4611 20.3964 19.0731 20.3964H4.20599C3.58746 20.3964 3.03079 20.8423 2.94644 21.4157L2.33354 25.53C2.21546 26.3157 3.01392 27.2288 3.50311 27.7013C3.95295 28.1313 4.847 28.8533 5.81978 28.8533H23.504C24.4655 28.8533 24.6455 28.1207 24.8029 27.0855C24.921 26.2838 24.9379 25.7954 24.668 25.5035C24.5161 25.3389 24.2912 25.2593 23.9763 25.2593H7.83842C7.69785 25.2593 7.65849 25.2274 7.64724 25.2221C7.63037 25.2009 7.6135 25.1425 7.63037 25.031L7.69785 24.5957C7.75408 24.2293 8.11957 23.9321 8.5188 23.9321H23.3859C24.0044 23.9321 24.5611 23.4808 24.6455 22.9128L25.5226 17.0147C25.6014 16.505 25.5283 16.1547 25.309 15.9105C25.0672 15.6503 24.668 15.5282 24.0157 15.5282L24.0213 15.5335Z" fill="#F2AE00"/>
<path d="M7.08495 3.81702H21.4629C21.6878 3.81702 21.8227 3.84357 21.879 3.90727C21.9296 3.96567 21.9464 4.08777 21.9183 4.26827L21.2773 8.5737C21.2379 8.83384 21.2998 9.0568 21.4629 9.22669C21.7778 9.57176 22.4356 9.7151 23.7177 9.7151C24.9997 9.7151 26.3492 9.63016 26.4954 8.6321L27.1983 3.9232C27.3051 3.20651 26.6754 2.19784 26.0006 1.5077C25.2921 0.785703 24.0719 0.00531006 23.0654 0.00531006H7.59101C6.97811 0.00531006 6.41581 0.461866 6.33147 1.0246L6.07844 2.73934C6.03907 3.02071 6.1178 3.29145 6.30335 3.49319C6.49453 3.70023 6.77006 3.81702 7.08495 3.81702Z" fill="#F2AE00"/>
<path d="M61.071 13.4419H32.8775C32.2645 13.4419 31.7023 13.8984 31.6179 14.4612L31.3649 16.1759C31.3255 16.4573 31.4042 16.728 31.5898 16.9297C31.781 17.1368 32.0565 17.2536 32.3714 17.2536H60.5649C61.757 17.2536 61.9538 16.5157 62.1225 15.3902C62.2406 14.5833 62.2518 14.0524 61.9594 13.7338C61.7739 13.5321 61.4871 13.4366 61.071 13.4366V13.4419Z" fill="#F2AE00"/>
<path d="M55.3693 24.6116H40.1086C39.9118 24.6116 39.7825 24.5744 39.7094 24.4948C39.6307 24.4099 39.6082 24.2559 39.6419 24.0382L40.2661 19.8602C40.3054 19.5789 40.2267 19.3081 40.0411 19.1064C39.85 18.8993 39.5744 18.7825 39.2595 18.7825H36.3075C35.689 18.7825 35.1323 19.2285 35.0479 19.8018L34.2832 24.946C34.182 25.615 34.8005 26.5228 35.4078 27.1386C36.0095 27.7916 37.0385 28.5507 37.9381 28.5507H54.852C55.8754 28.5507 56.0947 27.6376 56.2465 26.6236C56.3646 25.822 56.3815 25.2168 56.061 24.8717C55.8979 24.6965 55.673 24.6116 55.375 24.6116H55.3693Z" fill="#F2AE00"/>
<path d="M41.1826 11.2069H57.0056C58.0627 11.2069 58.2764 10.3362 58.4339 9.27977C58.5576 8.45691 58.5688 7.91541 58.2764 7.59688C58.1077 7.41638 57.8659 7.32613 57.5229 7.32613H42.7908C42.6671 7.32613 42.4984 7.3049 42.4084 7.20934C42.3241 7.11378 42.3241 6.95983 42.3409 6.84303L42.6839 4.53371C42.7345 4.17271 43.1169 3.87011 43.5049 3.87011H57.7422C58.7994 3.87011 59.013 2.99947 59.1705 1.94302C59.2942 1.12015 59.3054 0.578656 59.013 0.260128C58.8443 0.0796294 58.6025 -0.0106201 58.2595 -0.0106201H39.2371C38.6242 -0.0106201 38.0619 0.445936 37.9775 1.00867L37.0553 7.21465C36.9485 7.95257 37.6289 8.9931 38.2474 9.66201C38.9672 10.3999 40.193 11.1962 41.177 11.1962L41.1826 11.2069Z" fill="#F2AE00"/>
<path d="M109.001 10.1079C109.147 9.86373 109.434 9.70446 109.721 9.70446H111.953C112.133 9.70446 112.285 9.76817 112.392 9.88496C112.499 10.0018 112.544 10.161 112.521 10.3362L111.818 15.077C111.779 15.3371 111.841 15.5548 111.998 15.7246C112.347 16.1016 113.112 16.1759 114.157 16.1759C115.394 16.1759 116.609 16.0962 116.755 15.13L118.796 1.42805C118.841 1.13607 118.757 0.86001 118.566 0.647658C118.375 0.440616 118.099 0.323822 117.79 0.323822H115.119C114.506 0.323822 113.944 0.790996 113.859 1.36965L113.331 4.92124C113.275 5.29816 112.904 5.60607 112.504 5.60607H110.682C110.778 4.92655 110.463 3.93911 109.856 3.01538C109.209 1.99609 108.45 1.05644 107.269 1.05644H99.4984C98.8798 1.05644 98.3232 1.51299 98.2332 2.10227L97.9745 3.83293C97.9296 4.12492 98.0139 4.40098 98.2051 4.61333C98.3962 4.82037 98.6718 4.93716 98.9754 4.93716H105.549C105.656 4.93716 105.796 4.95309 105.864 5.02211C105.925 5.09112 105.92 5.21322 105.909 5.30878C105.847 5.73348 105.757 6.14757 105.644 6.54573C105.549 6.88549 105.194 7.14562 104.835 7.14562H98.5818C97.9745 7.14562 97.4066 7.6128 97.3166 8.19146L97.058 9.92212C97.013 10.2141 97.0974 10.4902 97.2885 10.7025C97.4797 10.9096 97.7552 11.0264 98.0645 11.0264H101.067C101.337 11.0264 101.534 11.1538 101.613 11.3767C101.691 11.6103 101.629 11.9448 101.298 12.1784C100.128 13.0012 98.7055 13.7816 96.9624 14.5673C95.9615 15.0133 96.1808 15.4964 96.67 16.5581L96.7768 16.7917C97.266 17.8588 97.5584 18.2675 98.0589 18.2675C98.2613 18.2675 98.4918 18.2038 98.7842 18.087C103.249 16.3723 106.966 13.4684 108.99 10.1185L109.001 10.1079Z" fill="#F2AE00"/>
<path d="M121.732 26.2148C119.713 25.2592 116.137 23.3428 114.911 21.2723C114.349 20.2955 114.382 19.4302 114.489 18.7082L114.551 18.2941C114.596 18.0021 114.512 17.7261 114.32 17.5137C114.129 17.3067 113.854 17.1899 113.545 17.1899H110.491C109.878 17.1899 109.316 17.6571 109.232 18.2357L109.187 18.5224C109.041 19.4939 108.703 20.2212 108.051 20.9485C106.133 23.0773 102.439 24.7284 99.9988 25.8167L99.4084 26.0821C98.4862 26.5068 98.7786 27.1545 99.1779 28.0464C99.2285 28.1632 99.2847 28.2906 99.3465 28.4233C99.7008 29.278 100.049 29.7399 100.482 29.9151C100.606 29.9681 100.741 29.9894 100.876 29.9894C101.039 29.9894 101.213 29.9522 101.405 29.8832C103.586 29.0285 107.967 26.9687 110.536 24.6859C110.711 24.5266 110.952 24.4417 111.166 24.4576C111.284 24.4629 111.447 24.5054 111.565 24.6434C113.421 26.8413 116.677 28.7949 119.083 29.7505C119.898 30.0637 120.376 29.8142 121.299 28.5879L121.377 28.487C122.046 27.5951 122.384 27.1492 122.277 26.7351C122.204 26.4537 121.94 26.2945 121.737 26.1989L121.732 26.2148Z" fill="#F2AE00"/>
<path d="M125.634 0.323837C125.443 0.116794 125.167 0 124.864 0H122.091C121.473 0 120.916 0.456556 120.826 1.04583L118.358 17.6305C118.318 17.8853 118.38 18.103 118.538 18.2729C118.892 18.6551 119.674 18.7347 120.736 18.7347C122.007 18.7347 123.261 18.6551 123.402 17.6889L125.87 1.10423C125.915 0.812246 125.831 0.536188 125.64 0.323837H125.634Z" fill="#F2AE00"/>
<path d="M83.0793 2.20846H67.4643C66.8458 2.20846 66.2891 2.66502 66.1992 3.25429L65.5188 7.84109C65.4457 8.3295 65.7437 8.77013 66.2441 8.90816C67.1663 9.16298 67.6949 9.94868 67.5599 10.8618C67.425 11.7855 66.6153 12.6137 65.5975 12.8685C65.0802 13.0012 64.6866 13.4047 64.6135 13.8772L64.0624 17.5987C63.9556 18.326 64.6022 19.3506 65.2489 20.0726C65.963 20.8211 68.9825 21.644 69.9384 21.644H80.1329C81.1844 21.644 81.4205 20.6671 81.5836 19.5735C81.7129 18.7029 81.7298 18.0924 81.4149 17.7473C81.2518 17.5668 81.01 17.4766 80.6952 17.4766H71.6647C71.541 17.4766 71.3779 17.4553 71.2879 17.3598C71.198 17.2589 71.198 17.0943 71.2205 16.9722L71.5578 14.7001C71.6141 14.3284 71.9908 14.0152 72.3844 14.0152H81.2069C82.2583 14.0152 82.4945 13.0384 82.6576 11.9448C82.7869 11.0742 82.8038 10.4636 82.4889 10.1186C82.3258 9.93807 82.084 9.84782 81.7691 9.84782H72.9467C72.7668 9.84782 72.6093 9.78411 72.5025 9.66732C72.3957 9.55052 72.3507 9.39126 72.3732 9.21607L72.6993 7.03946C72.7555 6.66785 73.1323 6.35463 73.5259 6.35463H82.5226C83.5741 6.35463 83.8103 5.37781 83.9733 4.2842C84.1027 3.41356 84.1195 2.80305 83.8047 2.45797C83.6416 2.27747 83.3998 2.18723 83.0849 2.18723L83.0793 2.20846Z" fill="#F2AE00"/>
<path d="M93.6842 0.15927H90.6647C90.0518 0.15927 89.4895 0.626444 89.3995 1.2051L85.5871 26.82C85.5478 27.0802 85.6096 27.2978 85.7671 27.473C86.1326 27.8712 86.9479 27.9508 88.0612 27.9508C89.6525 27.9508 90.7434 27.765 90.8783 26.8413L94.6851 1.25819C94.7301 0.966207 94.6457 0.690149 94.4546 0.477798C94.2634 0.270755 93.9879 0.153961 93.6786 0.153961L93.6842 0.15927Z" fill="#F2AE00"/>
<path d="M151.713 14.5408L139.764 3.99221C139.393 3.66306 138.803 3.67899 138.454 4.03468L136.003 6.50858C135.682 6.83241 135.682 7.33144 135.986 7.6712C137.318 9.1789 137.645 11.0104 136.661 12.0032C135.677 12.9959 133.725 12.8154 132.044 11.6634C131.656 11.398 131.128 11.4298 130.801 11.759L128.355 14.2329C128.007 14.5833 128.029 15.1354 128.4 15.4592L140.355 26.0131C140.726 26.3422 141.311 26.321 141.654 25.9706L151.758 15.7671C152.107 15.4167 152.084 14.8646 151.713 14.5408ZM135.778 19.3187C135.519 19.5788 135.092 19.5894 134.816 19.3506C134.541 19.1117 134.529 18.7029 134.782 18.4427L136.363 16.8448C136.621 16.5847 137.049 16.5741 137.324 16.8129C137.6 17.0518 137.611 17.4606 137.358 17.7208L135.778 19.3187ZM139.264 15.799C139.005 16.0591 138.578 16.0697 138.302 15.8308C138.027 15.5919 138.016 15.1831 138.269 14.923L139.849 13.3251C140.107 13.0649 140.535 13.0543 140.81 13.2932C141.086 13.5321 141.097 13.9409 140.844 14.201L139.264 15.799ZM142.75 12.2792C142.492 12.5394 142.064 12.55 141.789 12.3111C141.513 12.0722 141.502 11.6634 141.755 11.4033L143.335 9.80534C143.594 9.54521 144.021 9.53459 144.297 9.77349C144.572 10.0124 144.583 10.4212 144.33 10.6813L142.75 12.2792Z" fill="#F2AE00"/>
</g>
<defs>
<clipPath id="clip0_125_442">
<rect width="152" height="30" fill="white"/>
</clipPath>
</defs>
</svg>
