<svg width="20" height="20" viewBox="0 0 20 20" fill="none" xmlns="http://www.w3.org/2000/svg">
<path d="M9.375 15.625H10.625V10.625H15.625V9.375H10.625V4.375H9.375V9.375H4.375V10.625H9.375V15.625ZM2.01875 20C1.44375 20 0.96375 19.8075 0.57875 19.4225C0.192916 19.0367 0 18.5562 0 17.9813V2.01875C0 1.44375 0.192916 0.96375 0.57875 0.57875C0.96375 0.192916 1.44375 0 2.01875 0H17.9813C18.5562 0 19.0363 0.192916 19.4213 0.57875C19.8071 0.96375 20 1.44375 20 2.01875V17.9813C20 18.5562 19.8075 19.0363 19.4225 19.4213C19.0367 19.8071 18.5562 20 17.9813 20H2.01875ZM2.01875 18.75H17.9813C18.1729 18.75 18.3492 18.67 18.51 18.51C18.67 18.3492 18.75 18.1729 18.75 17.9813V2.01875C18.75 1.82708 18.67 1.65083 18.51 1.49C18.3492 1.33 18.1729 1.25 17.9813 1.25H2.01875C1.82708 1.25 1.65083 1.33 1.49 1.49C1.33 1.65083 1.25 1.82708 1.25 2.01875V17.9813C1.25 18.1729 1.33 18.3492 1.49 18.51C1.65083 18.67 1.82708 18.75 2.01875 18.75Z" fill="#FFCC00"/>
</svg>
