<svg width="19" height="24" viewBox="0 0 19 24" fill="none" xmlns="http://www.w3.org/2000/svg">
<g clip-path="url(#clip0_345_1739)">
<path d="M4.85693 5.49918C4.85693 5.49918 4.86295 5.48098 4.85693 5.47491H5.00738C4.95924 5.51132 4.9111 5.51132 4.85693 5.49918Z" fill="#E5E5E5"/>
<path d="M5.33258 5.46887C5.33258 5.46887 5.33258 5.48707 5.33258 5.49314C5.27842 5.50527 5.22426 5.50527 5.18213 5.46887H5.33258Z" fill="#E5E5E5"/>
<path d="M2.53995 23.4636C1.48077 23.3544 0.529917 22.3291 0.505844 21.2249C0.463718 19.5564 0.878964 18.0033 1.70344 16.5533C2.53393 15.0911 3.68939 13.9505 5.15178 13.1376C6.71648 12.27 8.39551 11.8938 10.1829 12.0273C12.0605 12.1729 13.7215 12.8524 15.1839 14.0355C16.3935 15.0183 17.2902 16.256 17.8679 17.7181C18.3133 18.8345 18.5359 19.9933 18.5058 21.2006C18.4758 22.3169 17.5369 23.3544 16.4657 23.4636C16.3935 23.5 16.3032 23.4454 16.231 23.5H2.76863C2.69642 23.4454 2.61216 23.5 2.53393 23.4636H2.53995Z" fill="#E5E5E5"/>
<path d="M14.6001 5.65087C14.588 8.49629 12.2891 10.8018 9.48472 10.7896C6.67429 10.7775 4.38743 8.45989 4.39946 5.63874C4.4115 2.79331 6.71039 0.481784 9.51481 0.499985C12.3252 0.518186 14.6121 2.82971 14.6001 5.65087Z" fill="#E5E5E5"/>
</g>
<defs>
<clipPath id="clip0_345_1739">
<rect width="18" height="23" fill="white" transform="translate(0.5 0.5)"/>
</clipPath>
</defs>
</svg>
