<svg width="100" height="100" viewBox="0 0 100 100" fill="none" xmlns="http://www.w3.org/2000/svg">
<g clip-path="url(#clip0_1698_13977)">
<rect width="100" height="100" rx="50" fill="#F5F5F5"/>
<g clip-path="url(#clip1_1698_13977)">
<path d="M29.4518 37.863C29.4849 37.8253 29.4896 37.7876 29.4707 37.7451H30.1282C29.9248 37.9149 29.693 37.9101 29.4565 37.863H29.4518Z" fill="url(#paint0_linear_1698_13977)"/>
<path d="M31.5662 37.7451C31.5425 37.7876 31.5473 37.8253 31.5804 37.863C31.3391 37.9101 31.1074 37.9149 30.9087 37.7451H31.5662Z" fill="url(#paint1_linear_1698_13977)"/>
<path d="M21.38 109.843C17.014 109.402 13.1257 105.198 13.0122 100.672C12.8371 93.8372 14.5542 90.5601 17.9364 84.6421C21.3611 78.6529 26.1009 73.9746 32.1036 70.6499C38.532 67.0877 45.4335 65.5489 52.7844 66.1141C60.4947 66.7078 67.3442 69.4957 73.3327 74.345C78.3137 78.3822 81.9844 83.4405 84.3732 89.4154C86.1991 93.9892 87.112 95.6516 86.989 100.582C86.8755 105.155 83.0109 109.402 78.6117 109.848C78.3137 110.009 77.9495 109.786 77.6609 110H22.3355C22.0423 109.782 21.6828 110.005 21.3848 109.848L21.38 109.843Z" fill="url(#paint2_linear_1698_13977)"/>
<path d="M72.9998 38.5236C72.9468 50.9753 62.5962 61.0563 49.9278 60.9998C37.2545 60.9385 26.9376 50.8056 27.0003 38.4812C27.0629 26.0201 37.4184 15.9297 50.0723 16.0004C62.7456 16.0711 73.0528 26.1898 72.9998 38.5236Z" fill="url(#paint3_linear_1698_13977)"/>
<path d="M44.5224 37.8915C45.4577 37.8915 46.2158 36.8043 46.2158 35.4633C46.2158 34.1223 45.4577 33.0352 44.5224 33.0352C43.5872 33.0352 42.829 34.1223 42.829 35.4633C42.829 36.8043 43.5872 37.8915 44.5224 37.8915Z" fill="white"/>
<path d="M55.908 37.8915C56.8433 37.8915 57.6015 36.8043 57.6015 35.4633C57.6015 34.1223 56.8433 33.0352 55.908 33.0352C54.9728 33.0352 54.2146 34.1223 54.2146 35.4633C54.2146 36.8043 54.9728 37.8915 55.908 37.8915Z" fill="white"/>
<path d="M49.4277 47.0475C48.3302 47.0475 47.5072 46.8542 47.3511 46.7787C47.001 46.5996 46.8639 46.1752 47.0436 45.8263C47.1997 45.5199 47.5592 45.3737 47.8761 45.4727C48.0843 45.5199 52.1381 46.4063 53.9876 43.417C54.191 43.0823 54.6309 42.9786 54.9621 43.186C55.2979 43.3887 55.3972 43.8272 55.1938 44.1573C53.7275 46.5336 51.2157 47.0475 49.4229 47.0475H49.4277Z" fill="white"/>
</g>
</g>
<defs>
<linearGradient id="paint0_linear_1698_13977" x1="29.5227" y1="37.6555" x2="30.0139" y2="37.9398" gradientUnits="userSpaceOnUse">
<stop stop-color="#FFE266"/>
<stop offset="1" stop-color="#FFCC00"/>
</linearGradient>
<linearGradient id="paint1_linear_1698_13977" x1="30.9938" y1="37.6084" x2="31.5464" y2="37.9306" gradientUnits="userSpaceOnUse">
<stop stop-color="#FFE266"/>
<stop offset="1" stop-color="#FFCC00"/>
</linearGradient>
<linearGradient id="paint2_linear_1698_13977" x1="22.0139" y1="77.5415" x2="81.7364" y2="111.884" gradientUnits="userSpaceOnUse">
<stop stop-color="#FFE266"/>
<stop offset="1" stop-color="#FFCC00"/>
</linearGradient>
<linearGradient id="paint3_linear_1698_13977" x1="30.0987" y1="27.2644" x2="69.4597" y2="50.497" gradientUnits="userSpaceOnUse">
<stop stop-color="#FFE266"/>
<stop offset="1" stop-color="#FFCC00"/>
</linearGradient>
<clipPath id="clip0_1698_13977">
<rect width="100" height="100" rx="50" fill="white"/>
</clipPath>
<clipPath id="clip1_1698_13977">
<rect width="74" height="94" fill="white" transform="translate(13 16)"/>
</clipPath>
</defs>
</svg>
