<svg width="18" height="23" viewBox="0 0 18 23" fill="none" xmlns="http://www.w3.org/2000/svg">
<g clip-path="url(#clip0_223_3375)">
<path d="M2.03995 22.9636C0.980769 22.8544 0.0299167 21.8291 0.00584445 20.7249C-0.0362819 19.0564 0.378964 17.5033 1.20344 16.0533C2.03393 14.5911 3.18939 13.4505 4.65178 12.6376C6.21648 11.77 7.89551 11.3938 9.68287 11.5273C11.5605 11.6729 13.2215 12.3524 14.6839 13.5355C15.8935 14.5183 16.7902 15.756 17.3679 17.2181C17.8133 18.3345 18.0359 19.4933 18.0058 20.7006C17.9758 21.8169 17.0369 22.8544 15.9657 22.9636C15.8935 23 15.8032 22.9454 15.731 23H2.26863C2.19642 22.9454 2.11216 23 2.03393 22.9636H2.03995Z" fill="#F2AE00"/>
<path d="M14.1001 5.15087C14.088 7.99629 11.7891 10.3018 8.98472 10.2896C6.17429 10.2775 3.88743 7.95989 3.89946 5.13873C3.9115 2.29331 6.21039 -0.0182163 9.01481 -1.53165e-05C11.8252 0.0181857 14.1121 2.32971 14.1001 5.15087Z" fill="#F2AE00"/>
</g>
<defs>
<clipPath id="clip0_223_3375">
<rect width="18" height="23" fill="white"/>
</clipPath>
</defs>
</svg>
