<svg width="18" height="24" viewBox="0 0 18 24" fill="none" xmlns="http://www.w3.org/2000/svg">
<g clip-path="url(#clip0_3080_5421)">
<path d="M4.35707 5.49888C4.35707 5.49888 4.36309 5.48068 4.35707 5.47461H4.50752C4.45938 5.51101 4.41123 5.51101 4.35707 5.49888Z" fill="#E5E5E5"/>
<path d="M4.8325 5.46875C4.8325 5.46875 4.8325 5.48695 4.8325 5.49302C4.77834 5.50515 4.72418 5.50515 4.68205 5.46875H4.8325Z" fill="#E5E5E5"/>
<path d="M2.04011 23.4635C0.980937 23.3543 0.0300845 22.329 0.0060123 21.2248C-0.0361141 19.5564 0.379132 18.0032 1.20361 16.5532C2.0341 15.0911 3.18956 13.9505 4.65195 13.1375C6.21664 12.2699 7.89568 11.8938 9.68304 12.0272C11.5607 12.1728 13.2217 12.8523 14.684 14.0354C15.8937 15.0183 16.7904 16.2559 17.3681 17.7181C17.8134 18.8344 18.0361 19.9932 18.006 21.2005C17.9759 22.3169 17.0371 23.3543 15.9659 23.4635C15.8937 23.4999 15.8034 23.4453 15.7312 23.4999H2.2688C2.19658 23.4453 2.11233 23.4999 2.0341 23.4635H2.04011Z" fill="#FFCC00"/>
<path d="M14.1003 5.65099C14.0883 8.49641 11.7894 10.8019 8.98495 10.7897C6.17452 10.7776 3.88765 8.46001 3.89969 5.63886C3.91173 2.79343 6.21062 0.481906 9.01504 0.500107C11.8255 0.518308 14.1123 2.82984 14.1003 5.65099Z" fill="#FFCC00"/>
</g>
<defs>
<clipPath id="clip0_3080_5421">
<rect width="18" height="23" fill="white" transform="translate(0 0.5)"/>
</clipPath>
</defs>
</svg>
