<svg width="24" height="21" viewBox="0 0 24 21" fill="none" xmlns="http://www.w3.org/2000/svg">
<g id="Property 1=heart_3-on" clip-path="url(#clip0_2859_13010)">
<path id="Vector" d="M23.9081 5.90424C23.7132 4.62134 23.2432 3.45123 22.4149 2.43337C21.3402 1.11383 19.953 0.318713 18.2449 0.0762322C16.8463 -0.123956 15.5279 0.095969 14.2984 0.783939C13.4443 1.26044 12.7364 1.9033 12.1489 2.67304C12.0485 2.80556 11.9912 2.85631 11.8737 2.68431C11.7448 2.49541 11.5871 2.32059 11.4295 2.15142C9.81593 0.428676 7.84124 -0.318505 5.48538 0.126984C3.00914 0.595029 1.35545 2.08939 0.504246 4.38168C-0.432941 6.908 -0.0345647 9.31307 1.44143 11.5603C2.26398 12.815 3.29574 13.892 4.39629 14.9071C6.53721 16.8836 8.81282 18.7106 11.0282 20.5997C11.676 21.1524 12.3781 21.127 13.0517 20.5518C15.0034 18.8854 16.9924 17.2642 18.9069 15.5584C20.2683 14.346 21.5752 13.08 22.5783 11.549C23.2604 10.5086 23.7505 9.3892 23.9167 8.1486C23.9282 8.05837 23.9081 7.94841 23.9998 7.87792V6.35819C23.9138 6.21721 23.931 6.05368 23.9081 5.90142V5.90424Z" fill="#FFCC00"/>
</g>
<defs>
<clipPath id="clip0_2859_13010">
<rect width="24" height="21" fill="white"/>
</clipPath>
</defs>
</svg>
