<svg width="20" height="20" viewBox="0 0 20 20" fill="none" xmlns="http://www.w3.org/2000/svg">
<path d="M15.625 10.625L15.625 9.375L10.625 9.375L4.375 9.375L4.375 10.625L11 10.625L15.625 10.625ZM20 17.9813C20 18.5563 19.8075 19.0363 19.4225 19.4213C19.0367 19.8071 18.5563 20 17.9813 20L2.01875 20C1.44375 20 0.96375 19.8071 0.57875 19.4213C0.192916 19.0363 1.72165e-08 18.5563 2.40733e-08 17.9813L2.14424e-07 2.01875C2.21281e-07 1.44375 0.192917 0.963749 0.57875 0.578749C0.96375 0.192915 1.44375 1.72165e-08 2.01875 2.40733e-08L17.9813 2.14424e-07C18.5563 2.21281e-07 19.0363 0.192499 19.4213 0.5775C19.8071 0.963333 20 1.44375 20 2.01875L20 17.9813Z" fill="#FFCC00"/>
</svg>
