<svg width="5" height="10" viewBox="0 0 5 10" fill="none" xmlns="http://www.w3.org/2000/svg">
<g clip-path="url(#clip0_598_1397)">
<path d="M0.372974 10C0.276772 9.95321 0.17932 9.91192 0.109355 9.81696C-0.0268263 9.63116 -0.0330729 9.37517 0.10186 9.18662C0.129346 9.14809 0.16058 9.11368 0.191815 9.07927C1.40121 7.74704 2.61061 6.41343 3.8225 5.08258C3.88872 5.00963 3.87872 4.97798 3.81875 4.91329C2.60311 3.57831 1.38997 2.24057 0.175574 0.902835C-0.0043365 0.704651 -0.0455657 0.480319 0.0568828 0.266997C0.189317 -0.00825829 0.517902 -0.0867056 0.740291 0.105973C0.772775 0.133499 0.80276 0.166528 0.831496 0.198183C2.15958 1.66254 3.48892 3.12552 4.81825 4.58987C5.06313 4.85962 5.06188 5.14313 4.8145 5.41426C3.51265 6.84696 2.2108 8.28103 0.910205 9.71511C0.804008 9.83209 0.697812 9.9477 0.550385 10L0.372974 10Z" fill="#828282"/>
</g>
<defs>
<clipPath id="clip0_598_1397">
<rect width="5" height="10" fill="white" transform="translate(5 10) rotate(-180)"/>
</clipPath>
</defs>
</svg>
