<svg width="24" height="24" viewBox="0 0 24 24" fill="none" xmlns="http://www.w3.org/2000/svg">
<circle cx="12" cy="12" r="12" fill="#FFCC00"/>
<path d="M12.8908 19.1306L19.1434 12.8857C19.2572 12.7669 19.3464 12.6269 19.406 12.4735C19.531 12.1695 19.531 11.8284 19.406 11.5243C19.3464 11.371 19.2572 11.2309 19.1434 11.1122L12.8908 4.86731C12.7742 4.75086 12.6357 4.65848 12.4834 4.59546C12.3311 4.53244 12.1678 4.5 12.0029 4.5C11.6699 4.5 11.3505 4.63213 11.115 4.86731C10.8795 5.1025 10.7473 5.42148 10.7473 5.75408C10.7473 6.08668 10.8795 6.40566 11.115 6.64085L15.2417 10.75L5.75029 10.75C5.41864 10.75 5.10056 10.8816 4.86604 11.1158C4.63152 11.35 4.49977 11.6677 4.49977 11.9989C4.49977 12.3302 4.63152 12.6479 4.86604 12.8821C5.10056 13.1163 5.41863 13.2479 5.75029 13.2479L15.2417 13.2479L11.115 17.357C10.9978 17.4731 10.9048 17.6113 10.8413 17.7635C10.7778 17.9157 10.7451 18.0789 10.7451 18.2438C10.7451 18.4087 10.7778 18.5719 10.8413 18.7241C10.9048 18.8763 10.9978 19.0144 11.115 19.1306C11.2313 19.2476 11.3696 19.3405 11.522 19.4039C11.6744 19.4674 11.8378 19.5 12.0029 19.5C12.168 19.5 12.3314 19.4674 12.4838 19.4039C12.6362 19.3405 12.7745 19.2476 12.8908 19.1306Z" fill="white"/>
</svg>
