<svg width="16" height="16" viewBox="0 0 16 16" fill="none" xmlns="http://www.w3.org/2000/svg">
<path d="M15.7569 14.9224C14.3862 13.5534 13.018 12.1818 11.6447 10.8154C11.5521 10.7228 11.5341 10.6688 11.6241 10.553C12.8097 9.01673 13.2572 7.29007 12.928 5.37298C12.3956 2.27735 9.66443 -0.00513784 6.35202 8.68578e-06C5.68594 0.00772848 4.88612 0.156978 4.1146 0.463196C1.07994 1.66234 -0.617419 4.98957 0.208113 8.13667C1.40655 12.7094 6.83808 14.5467 10.5491 11.6312C10.6546 11.5488 10.7111 11.5411 10.8114 11.644C11.9533 12.7969 13.1029 13.942 14.2499 15.0896C14.4993 15.3392 14.7411 15.594 14.9982 15.8333C15.3403 16.155 15.8855 15.9877 15.9858 15.5322C16.0398 15.2852 15.9344 15.0948 15.7621 14.9198L15.7569 14.9224ZM6.50118 11.8525C3.56425 11.8422 1.18023 9.44389 1.18538 6.50779C1.19052 3.5717 3.58739 1.18114 6.52176 1.18628C9.46641 1.19143 11.8581 3.59486 11.8453 6.54125C11.835 9.47991 9.43298 11.8653 6.49861 11.855L6.50118 11.8525Z" fill="#BDBDBD"/>
</svg>
