<svg width="12" height="13" viewBox="0 0 12 13" fill="none" xmlns="http://www.w3.org/2000/svg">
<path d="M11.8177 11.6918C10.7896 10.665 9.7635 9.63638 8.73351 8.61158C8.66407 8.5421 8.65057 8.50157 8.71808 8.41472C9.60726 7.26254 9.94288 5.96755 9.69599 4.52974C9.29672 2.20801 7.24833 0.496147 4.76402 0.500007C4.26445 0.505796 3.66459 0.617733 3.08595 0.847397C0.809952 1.74675 -0.463064 4.24218 0.156085 6.6025C1.05491 10.032 5.12856 11.41 7.91184 9.22337C7.99092 9.16161 8.03335 9.15582 8.10858 9.23302C8.96497 10.0976 9.82715 10.9565 10.6874 11.8172C10.8745 12.0044 11.0558 12.1955 11.2487 12.375C11.5052 12.6162 11.9141 12.4908 11.9893 12.1492C12.0298 11.9639 11.9508 11.8211 11.8215 11.6898L11.8177 11.6918ZM4.87589 9.38935C2.67318 9.38163 0.885176 7.58292 0.889033 5.38085C0.892891 3.17877 2.69054 1.38585 4.89132 1.38971C7.09981 1.39357 8.8936 3.19614 8.88396 5.40593C8.87624 7.60994 7.07473 9.399 4.87396 9.39128L4.87589 9.38935Z" fill="#BDBDBD"/>
</svg>
