<svg width="75" height="75" viewBox="0 0 75 75" fill="none" xmlns="http://www.w3.org/2000/svg">
<g clip-path="url(#clip0_480_6336)">
<path d="M74.1531 37.202L37.8137 0.846926C36.6844 -0.282309 34.8338 -0.282309 33.7045 0.846926L25.7371 8.8143C24.6863 9.86512 24.6393 11.5119 25.5489 12.6882C29.564 17.8482 30.3795 23.9806 27.18 27.1644C23.9806 30.3482 17.8795 29.5483 12.7196 25.5489C11.5433 24.6236 9.86512 24.6863 8.8143 25.7371L0.846926 33.7045C-0.282309 34.8338 -0.282309 36.6688 0.846926 37.798L37.202 74.1531C38.3312 75.2823 40.1662 75.2823 41.2955 74.1531L74.1531 41.2955C75.2823 40.1662 75.2823 38.3312 74.1531 37.202ZM23.5885 51.4115C22.7572 52.2428 21.3927 52.2428 20.5615 51.4115C19.7302 50.5803 19.7302 49.2158 20.5615 48.3846L25.7058 43.2403C26.537 42.409 27.9015 42.409 28.7327 43.2403C29.564 44.0715 29.564 45.436 28.7327 46.2673L23.5885 51.4115ZM34.9279 40.0721C34.0966 40.9034 32.7321 40.9034 31.9009 40.0721C31.0696 39.2409 31.0696 37.8764 31.9009 37.0452L37.0452 31.9009C37.8764 31.0696 39.2409 31.0696 40.0721 31.9009C40.9034 32.7321 40.9034 34.0966 40.0721 34.9279L34.9279 40.0721ZM46.2673 28.7327C45.436 29.564 44.0715 29.564 43.2403 28.7327C42.409 27.9015 42.409 26.537 43.2403 25.7058L48.3846 20.5615C49.2158 19.7302 50.5803 19.7302 51.4115 20.5615C52.2428 21.3927 52.2428 22.7572 51.4115 23.5885L46.2673 28.7327Z" fill="white"/>
</g>
<defs>
<clipPath id="clip0_480_6336">
<rect width="75" height="75" fill="white"/>
</clipPath>
</defs>
</svg>
