<svg width="365" height="649" viewBox="0 0 365 649" fill="none" xmlns="http://www.w3.org/2000/svg">
<g filter="url(#filter0_d_2285_23006)">
<g filter="url(#filter1_d_2285_23006)">
<path fill-rule="evenodd" clip-rule="evenodd" d="M15 32C15 20.9543 23.9543 12 35 12H330C341.046 12 350 20.9543 350 32V328C338.402 328 329 337.402 329 349C329 360.598 338.402 370 350 370V611C350 622.046 341.046 631 330 631H35C23.9543 631 15 622.046 15 611V370C26.598 370 36 360.598 36 349C36 337.402 26.598 328 15 328V32Z" fill="white"/>
<path d="M15 32C15 20.9543 23.9543 12 35 12H330C341.046 12 350 20.9543 350 32V96H15V32Z" fill="#FFCC00"/>
<path d="M329.492 54.3212L307.688 32.5082C307.011 31.8306 305.9 31.8306 305.223 32.5082L300.442 37.2886C299.812 37.9191 299.784 38.9072 300.329 39.6129C302.738 42.7089 303.228 46.3883 301.308 48.2986C299.388 50.2089 295.728 49.729 292.632 47.3294C291.926 46.7742 290.919 46.8118 290.289 47.4423L285.508 52.2227C284.831 52.9003 284.831 54.0013 285.508 54.6788L307.321 76.4918C307.999 77.1694 309.1 77.1694 309.777 76.4918L329.492 56.7773C330.169 56.0997 330.169 54.9987 329.492 54.3212ZM299.153 62.8469C298.654 63.3457 297.836 63.3457 297.337 62.8469C296.838 62.3482 296.838 61.5295 297.337 61.0307L300.423 57.9442C300.922 57.4454 301.741 57.4454 302.24 57.9442C302.738 58.4429 302.738 59.2616 302.24 59.7604L299.153 62.8469ZM305.957 56.0433C305.458 56.542 304.639 56.542 304.141 56.0433C303.642 55.5445 303.642 54.7258 304.141 54.2271L307.227 51.1405C307.726 50.6418 308.545 50.6418 309.043 51.1405C309.542 51.6393 309.542 52.458 309.043 52.9567L305.957 56.0433ZM312.76 49.2396C312.262 49.7384 311.443 49.7384 310.944 49.2396C310.445 48.7409 310.445 47.9222 310.944 47.4235L314.031 44.3369C314.529 43.8381 315.348 43.8381 315.847 44.3369C316.346 44.8356 316.346 45.6543 315.847 46.1531L312.76 49.2396Z" fill="white"/>
<path d="M325 349.5C325.276 349.5 325.5 349.276 325.5 349C325.5 348.724 325.276 348.5 325 348.5V349.5ZM40 348.5C39.7239 348.5 39.5 348.724 39.5 349C39.5 349.276 39.7239 349.5 40 349.5V348.5ZM41.4844 349.5C41.7605 349.5 41.9844 349.276 41.9844 349C41.9844 348.724 41.7605 348.5 41.4844 348.5V349.5ZM47.4219 348.5C47.1457 348.5 46.9219 348.724 46.9219 349C46.9219 349.276 47.1457 349.5 47.4219 349.5V348.5ZM50.3906 349.5C50.6668 349.5 50.8906 349.276 50.8906 349C50.8906 348.724 50.6668 348.5 50.3906 348.5V349.5ZM56.3281 348.5C56.052 348.5 55.8281 348.724 55.8281 349C55.8281 349.276 56.052 349.5 56.3281 349.5V348.5ZM59.2969 349.5C59.573 349.5 59.7969 349.276 59.7969 349C59.7969 348.724 59.573 348.5 59.2969 348.5V349.5ZM65.2344 348.5C64.9582 348.5 64.7344 348.724 64.7344 349C64.7344 349.276 64.9582 349.5 65.2344 349.5V348.5ZM68.2031 349.5C68.4793 349.5 68.7031 349.276 68.7031 349C68.7031 348.724 68.4793 348.5 68.2031 348.5V349.5ZM74.1406 348.5C73.8645 348.5 73.6406 348.724 73.6406 349C73.6406 349.276 73.8645 349.5 74.1406 349.5V348.5ZM77.1094 349.5C77.3855 349.5 77.6094 349.276 77.6094 349C77.6094 348.724 77.3855 348.5 77.1094 348.5V349.5ZM83.0469 348.5C82.7707 348.5 82.5469 348.724 82.5469 349C82.5469 349.276 82.7707 349.5 83.0469 349.5V348.5ZM86.0156 349.5C86.2918 349.5 86.5156 349.276 86.5156 349C86.5156 348.724 86.2918 348.5 86.0156 348.5V349.5ZM91.9531 348.5C91.677 348.5 91.4531 348.724 91.4531 349C91.4531 349.276 91.677 349.5 91.9531 349.5V348.5ZM94.9219 349.5C95.198 349.5 95.4219 349.276 95.4219 349C95.4219 348.724 95.198 348.5 94.9219 348.5V349.5ZM100.859 348.5C100.583 348.5 100.359 348.724 100.359 349C100.359 349.276 100.583 349.5 100.859 349.5V348.5ZM103.828 349.5C104.104 349.5 104.328 349.276 104.328 349C104.328 348.724 104.104 348.5 103.828 348.5V349.5ZM109.766 348.5C109.489 348.5 109.266 348.724 109.266 349C109.266 349.276 109.489 349.5 109.766 349.5V348.5ZM112.734 349.5C113.011 349.5 113.234 349.276 113.234 349C113.234 348.724 113.011 348.5 112.734 348.5V349.5ZM118.672 348.5C118.396 348.5 118.172 348.724 118.172 349C118.172 349.276 118.396 349.5 118.672 349.5V348.5ZM121.641 349.5C121.917 349.5 122.141 349.276 122.141 349C122.141 348.724 121.917 348.5 121.641 348.5V349.5ZM127.578 348.5C127.302 348.5 127.078 348.724 127.078 349C127.078 349.276 127.302 349.5 127.578 349.5V348.5ZM130.547 349.5C130.823 349.5 131.047 349.276 131.047 349C131.047 348.724 130.823 348.5 130.547 348.5V349.5ZM136.484 348.5C136.208 348.5 135.984 348.724 135.984 349C135.984 349.276 136.208 349.5 136.484 349.5V348.5ZM139.453 349.5C139.729 349.5 139.953 349.276 139.953 349C139.953 348.724 139.729 348.5 139.453 348.5V349.5ZM145.391 348.5C145.114 348.5 144.891 348.724 144.891 349C144.891 349.276 145.114 349.5 145.391 349.5V348.5ZM148.359 349.5C148.636 349.5 148.859 349.276 148.859 349C148.859 348.724 148.636 348.5 148.359 348.5V349.5ZM154.297 348.5C154.021 348.5 153.797 348.724 153.797 349C153.797 349.276 154.021 349.5 154.297 349.5V348.5ZM157.266 349.5C157.542 349.5 157.766 349.276 157.766 349C157.766 348.724 157.542 348.5 157.266 348.5V349.5ZM163.203 348.5C162.927 348.5 162.703 348.724 162.703 349C162.703 349.276 162.927 349.5 163.203 349.5V348.5ZM166.172 349.5C166.448 349.5 166.672 349.276 166.672 349C166.672 348.724 166.448 348.5 166.172 348.5V349.5ZM172.109 348.5C171.833 348.5 171.609 348.724 171.609 349C171.609 349.276 171.833 349.5 172.109 349.5V348.5ZM175.078 349.5C175.354 349.5 175.578 349.276 175.578 349C175.578 348.724 175.354 348.5 175.078 348.5V349.5ZM181.016 348.5C180.739 348.5 180.516 348.724 180.516 349C180.516 349.276 180.739 349.5 181.016 349.5V348.5ZM183.984 349.5C184.261 349.5 184.484 349.276 184.484 349C184.484 348.724 184.261 348.5 183.984 348.5V349.5ZM189.922 348.5C189.646 348.5 189.422 348.724 189.422 349C189.422 349.276 189.646 349.5 189.922 349.5V348.5ZM192.891 349.5C193.167 349.5 193.391 349.276 193.391 349C193.391 348.724 193.167 348.5 192.891 348.5V349.5ZM198.828 348.5C198.552 348.5 198.328 348.724 198.328 349C198.328 349.276 198.552 349.5 198.828 349.5V348.5ZM201.797 349.5C202.073 349.5 202.297 349.276 202.297 349C202.297 348.724 202.073 348.5 201.797 348.5V349.5ZM207.734 348.5C207.458 348.5 207.234 348.724 207.234 349C207.234 349.276 207.458 349.5 207.734 349.5V348.5ZM210.703 349.5C210.979 349.5 211.203 349.276 211.203 349C211.203 348.724 210.979 348.5 210.703 348.5V349.5ZM216.641 348.5C216.364 348.5 216.141 348.724 216.141 349C216.141 349.276 216.364 349.5 216.641 349.5V348.5ZM219.609 349.5C219.886 349.5 220.109 349.276 220.109 349C220.109 348.724 219.886 348.5 219.609 348.5V349.5ZM225.547 348.5C225.271 348.5 225.047 348.724 225.047 349C225.047 349.276 225.271 349.5 225.547 349.5V348.5ZM228.516 349.5C228.792 349.5 229.016 349.276 229.016 349C229.016 348.724 228.792 348.5 228.516 348.5V349.5ZM234.453 348.5C234.177 348.5 233.953 348.724 233.953 349C233.953 349.276 234.177 349.5 234.453 349.5V348.5ZM237.422 349.5C237.698 349.5 237.922 349.276 237.922 349C237.922 348.724 237.698 348.5 237.422 348.5V349.5ZM243.359 348.5C243.083 348.5 242.859 348.724 242.859 349C242.859 349.276 243.083 349.5 243.359 349.5V348.5ZM246.328 349.5C246.604 349.5 246.828 349.276 246.828 349C246.828 348.724 246.604 348.5 246.328 348.5V349.5ZM252.266 348.5C251.989 348.5 251.766 348.724 251.766 349C251.766 349.276 251.989 349.5 252.266 349.5V348.5ZM255.234 349.5C255.511 349.5 255.734 349.276 255.734 349C255.734 348.724 255.511 348.5 255.234 348.5V349.5ZM261.172 348.5C260.896 348.5 260.672 348.724 260.672 349C260.672 349.276 260.896 349.5 261.172 349.5V348.5ZM264.141 349.5C264.417 349.5 264.641 349.276 264.641 349C264.641 348.724 264.417 348.5 264.141 348.5V349.5ZM270.078 348.5C269.802 348.5 269.578 348.724 269.578 349C269.578 349.276 269.802 349.5 270.078 349.5V348.5ZM273.047 349.5C273.323 349.5 273.547 349.276 273.547 349C273.547 348.724 273.323 348.5 273.047 348.5V349.5ZM278.984 348.5C278.708 348.5 278.484 348.724 278.484 349C278.484 349.276 278.708 349.5 278.984 349.5V348.5ZM281.953 349.5C282.229 349.5 282.453 349.276 282.453 349C282.453 348.724 282.229 348.5 281.953 348.5V349.5ZM287.891 348.5C287.614 348.5 287.391 348.724 287.391 349C287.391 349.276 287.614 349.5 287.891 349.5V348.5ZM290.859 349.5C291.136 349.5 291.359 349.276 291.359 349C291.359 348.724 291.136 348.5 290.859 348.5V349.5ZM296.797 348.5C296.521 348.5 296.297 348.724 296.297 349C296.297 349.276 296.521 349.5 296.797 349.5V348.5ZM299.766 349.5C300.042 349.5 300.266 349.276 300.266 349C300.266 348.724 300.042 348.5 299.766 348.5V349.5ZM305.703 348.5C305.427 348.5 305.203 348.724 305.203 349C305.203 349.276 305.427 349.5 305.703 349.5V348.5ZM308.672 349.5C308.948 349.5 309.172 349.276 309.172 349C309.172 348.724 308.948 348.5 308.672 348.5V349.5ZM314.609 348.5C314.333 348.5 314.109 348.724 314.109 349C314.109 349.276 314.333 349.5 314.609 349.5V348.5ZM317.578 349.5C317.854 349.5 318.078 349.276 318.078 349C318.078 348.724 317.854 348.5 317.578 348.5V349.5ZM323.516 348.5C323.24 348.5 323.016 348.724 323.016 349C323.016 349.276 323.24 349.5 323.516 349.5V348.5ZM40 349.5H41.4844V348.5H40V349.5ZM47.4219 349.5H50.3906V348.5H47.4219V349.5ZM56.3281 349.5H59.2969V348.5H56.3281V349.5ZM65.2344 349.5H68.2031V348.5H65.2344V349.5ZM74.1406 349.5H77.1094V348.5H74.1406V349.5ZM83.0469 349.5H86.0156V348.5H83.0469V349.5ZM91.9531 349.5H94.9219V348.5H91.9531V349.5ZM100.859 349.5H103.828V348.5H100.859V349.5ZM109.766 349.5H112.734V348.5H109.766V349.5ZM118.672 349.5H121.641V348.5H118.672V349.5ZM127.578 349.5H130.547V348.5H127.578V349.5ZM136.484 349.5H139.453V348.5H136.484V349.5ZM145.391 349.5H148.359V348.5H145.391V349.5ZM154.297 349.5H157.266V348.5H154.297V349.5ZM163.203 349.5H166.172V348.5H163.203V349.5ZM172.109 349.5H175.078V348.5H172.109V349.5ZM181.016 349.5H183.984V348.5H181.016V349.5ZM189.922 349.5H192.891V348.5H189.922V349.5ZM198.828 349.5H201.797V348.5H198.828V349.5ZM207.734 349.5H210.703V348.5H207.734V349.5ZM216.641 349.5H219.609V348.5H216.641V349.5ZM225.547 349.5H228.516V348.5H225.547V349.5ZM234.453 349.5H237.422V348.5H234.453V349.5ZM243.359 349.5H246.328V348.5H243.359V349.5ZM252.266 349.5H255.234V348.5H252.266V349.5ZM261.172 349.5H264.141V348.5H261.172V349.5ZM270.078 349.5H273.047V348.5H270.078V349.5ZM278.984 349.5H281.953V348.5H278.984V349.5ZM287.891 349.5H290.859V348.5H287.891V349.5ZM296.797 349.5H299.766V348.5H296.797V349.5ZM305.703 349.5H308.672V348.5H305.703V349.5ZM314.609 349.5H317.578V348.5H314.609V349.5ZM323.516 349.5H325V348.5H323.516V349.5ZM325 350C325.552 350 326 349.552 326 349C326 348.448 325.552 348 325 348V350ZM40 348C39.4477 348 39 348.448 39 349C39 349.552 39.4477 350 40 350V348ZM41.4844 350C42.0367 350 42.4844 349.552 42.4844 349C42.4844 348.448 42.0367 348 41.4844 348V350ZM47.4219 348C46.8696 348 46.4219 348.448 46.4219 349C46.4219 349.552 46.8696 350 47.4219 350V348ZM50.3906 350C50.9429 350 51.3906 349.552 51.3906 349C51.3906 348.448 50.9429 348 50.3906 348V350ZM56.3281 348C55.7758 348 55.3281 348.448 55.3281 349C55.3281 349.552 55.7758 350 56.3281 350V348ZM59.2969 350C59.8492 350 60.2969 349.552 60.2969 349C60.2969 348.448 59.8492 348 59.2969 348V350ZM65.2344 348C64.6821 348 64.2344 348.448 64.2344 349C64.2344 349.552 64.6821 350 65.2344 350V348ZM68.2031 350C68.7554 350 69.2031 349.552 69.2031 349C69.2031 348.448 68.7554 348 68.2031 348V350ZM74.1406 348C73.5883 348 73.1406 348.448 73.1406 349C73.1406 349.552 73.5883 350 74.1406 350V348ZM77.1094 350C77.6617 350 78.1094 349.552 78.1094 349C78.1094 348.448 77.6617 348 77.1094 348V350ZM83.0469 348C82.4946 348 82.0469 348.448 82.0469 349C82.0469 349.552 82.4946 350 83.0469 350V348ZM86.0156 350C86.5679 350 87.0156 349.552 87.0156 349C87.0156 348.448 86.5679 348 86.0156 348V350ZM91.9531 348C91.4008 348 90.9531 348.448 90.9531 349C90.9531 349.552 91.4008 350 91.9531 350V348ZM94.9219 350C95.4742 350 95.9219 349.552 95.9219 349C95.9219 348.448 95.4742 348 94.9219 348V350ZM100.859 348C100.307 348 99.8594 348.448 99.8594 349C99.8594 349.552 100.307 350 100.859 350V348ZM103.828 350C104.38 350 104.828 349.552 104.828 349C104.828 348.448 104.38 348 103.828 348V350ZM109.766 348C109.213 348 108.766 348.448 108.766 349C108.766 349.552 109.213 350 109.766 350V348ZM112.734 350C113.287 350 113.734 349.552 113.734 349C113.734 348.448 113.287 348 112.734 348V350ZM118.672 348C118.12 348 117.672 348.448 117.672 349C117.672 349.552 118.12 350 118.672 350V348ZM121.641 350C122.193 350 122.641 349.552 122.641 349C122.641 348.448 122.193 348 121.641 348V350ZM127.578 348C127.026 348 126.578 348.448 126.578 349C126.578 349.552 127.026 350 127.578 350V348ZM130.547 350C131.099 350 131.547 349.552 131.547 349C131.547 348.448 131.099 348 130.547 348V350ZM136.484 348C135.932 348 135.484 348.448 135.484 349C135.484 349.552 135.932 350 136.484 350V348ZM139.453 350C140.005 350 140.453 349.552 140.453 349C140.453 348.448 140.005 348 139.453 348V350ZM145.391 348C144.838 348 144.391 348.448 144.391 349C144.391 349.552 144.838 350 145.391 350V348ZM148.359 350C148.912 350 149.359 349.552 149.359 349C149.359 348.448 148.912 348 148.359 348V350ZM154.297 348C153.745 348 153.297 348.448 153.297 349C153.297 349.552 153.745 350 154.297 350V348ZM157.266 350C157.818 350 158.266 349.552 158.266 349C158.266 348.448 157.818 348 157.266 348V350ZM163.203 348C162.651 348 162.203 348.448 162.203 349C162.203 349.552 162.651 350 163.203 350V348ZM166.172 350C166.724 350 167.172 349.552 167.172 349C167.172 348.448 166.724 348 166.172 348V350ZM172.109 348C171.557 348 171.109 348.448 171.109 349C171.109 349.552 171.557 350 172.109 350V348ZM175.078 350C175.63 350 176.078 349.552 176.078 349C176.078 348.448 175.63 348 175.078 348V350ZM181.016 348C180.463 348 180.016 348.448 180.016 349C180.016 349.552 180.463 350 181.016 350V348ZM183.984 350C184.537 350 184.984 349.552 184.984 349C184.984 348.448 184.537 348 183.984 348V350ZM189.922 348C189.37 348 188.922 348.448 188.922 349C188.922 349.552 189.37 350 189.922 350V348ZM192.891 350C193.443 350 193.891 349.552 193.891 349C193.891 348.448 193.443 348 192.891 348V350ZM198.828 348C198.276 348 197.828 348.448 197.828 349C197.828 349.552 198.276 350 198.828 350V348ZM201.797 350C202.349 350 202.797 349.552 202.797 349C202.797 348.448 202.349 348 201.797 348V350ZM207.734 348C207.182 348 206.734 348.448 206.734 349C206.734 349.552 207.182 350 207.734 350V348ZM210.703 350C211.255 350 211.703 349.552 211.703 349C211.703 348.448 211.255 348 210.703 348V350ZM216.641 348C216.088 348 215.641 348.448 215.641 349C215.641 349.552 216.088 350 216.641 350V348ZM219.609 350C220.162 350 220.609 349.552 220.609 349C220.609 348.448 220.162 348 219.609 348V350ZM225.547 348C224.995 348 224.547 348.448 224.547 349C224.547 349.552 224.995 350 225.547 350V348ZM228.516 350C229.068 350 229.516 349.552 229.516 349C229.516 348.448 229.068 348 228.516 348V350ZM234.453 348C233.901 348 233.453 348.448 233.453 349C233.453 349.552 233.901 350 234.453 350V348ZM237.422 350C237.974 350 238.422 349.552 238.422 349C238.422 348.448 237.974 348 237.422 348V350ZM243.359 348C242.807 348 242.359 348.448 242.359 349C242.359 349.552 242.807 350 243.359 350V348ZM246.328 350C246.88 350 247.328 349.552 247.328 349C247.328 348.448 246.88 348 246.328 348V350ZM252.266 348C251.713 348 251.266 348.448 251.266 349C251.266 349.552 251.713 350 252.266 350V348ZM255.234 350C255.787 350 256.234 349.552 256.234 349C256.234 348.448 255.787 348 255.234 348V350ZM261.172 348C260.62 348 260.172 348.448 260.172 349C260.172 349.552 260.62 350 261.172 350V348ZM264.141 350C264.693 350 265.141 349.552 265.141 349C265.141 348.448 264.693 348 264.141 348V350ZM270.078 348C269.526 348 269.078 348.448 269.078 349C269.078 349.552 269.526 350 270.078 350V348ZM273.047 350C273.599 350 274.047 349.552 274.047 349C274.047 348.448 273.599 348 273.047 348V350ZM278.984 348C278.432 348 277.984 348.448 277.984 349C277.984 349.552 278.432 350 278.984 350V348ZM281.953 350C282.505 350 282.953 349.552 282.953 349C282.953 348.448 282.505 348 281.953 348V350ZM287.891 348C287.338 348 286.891 348.448 286.891 349C286.891 349.552 287.338 350 287.891 350V348ZM290.859 350C291.412 350 291.859 349.552 291.859 349C291.859 348.448 291.412 348 290.859 348V350ZM296.797 348C296.245 348 295.797 348.448 295.797 349C295.797 349.552 296.245 350 296.797 350V348ZM299.766 350C300.318 350 300.766 349.552 300.766 349C300.766 348.448 300.318 348 299.766 348V350ZM305.703 348C305.151 348 304.703 348.448 304.703 349C304.703 349.552 305.151 350 305.703 350V348ZM308.672 350C309.224 350 309.672 349.552 309.672 349C309.672 348.448 309.224 348 308.672 348V350ZM314.609 348C314.057 348 313.609 348.448 313.609 349C313.609 349.552 314.057 350 314.609 350V348ZM317.578 350C318.13 350 318.578 349.552 318.578 349C318.578 348.448 318.13 348 317.578 348V350ZM323.516 348C322.963 348 322.516 348.448 322.516 349C322.516 349.552 322.963 350 323.516 350V348ZM40 350H41.4844V348H40V350ZM47.4219 350H50.3906V348H47.4219V350ZM56.3281 350H59.2969V348H56.3281V350ZM65.2344 350H68.2031V348H65.2344V350ZM74.1406 350H77.1094V348H74.1406V350ZM83.0469 350H86.0156V348H83.0469V350ZM91.9531 350H94.9219V348H91.9531V350ZM100.859 350H103.828V348H100.859V350ZM109.766 350H112.734V348H109.766V350ZM118.672 350H121.641V348H118.672V350ZM127.578 350H130.547V348H127.578V350ZM136.484 350H139.453V348H136.484V350ZM145.391 350H148.359V348H145.391V350ZM154.297 350H157.266V348H154.297V350ZM163.203 350H166.172V348H163.203V350ZM172.109 350H175.078V348H172.109V350ZM181.016 350H183.984V348H181.016V350ZM189.922 350H192.891V348H189.922V350ZM198.828 350H201.797V348H198.828V350ZM207.734 350H210.703V348H207.734V350ZM216.641 350H219.609V348H216.641V350ZM225.547 350H228.516V348H225.547V350ZM234.453 350H237.422V348H234.453V350ZM243.359 350H246.328V348H243.359V350ZM252.266 350H255.234V348H252.266V350ZM261.172 350H264.141V348H261.172V350ZM270.078 350H273.047V348H270.078V350ZM278.984 350H281.953V348H278.984V350ZM287.891 350H290.859V348H287.891V350ZM296.797 350H299.766V348H296.797V350ZM305.703 350H308.672V348H305.703V350ZM314.609 350H317.578V348H314.609V350ZM323.516 350H325V348H323.516V350Z" fill="#E5E5E5" mask="url(#path-4-inside-1_2285_23006)"/>
</g>
</g>
<defs>
<filter id="filter0_d_2285_23006" x="11" y="12" width="343" height="627" filterUnits="userSpaceOnUse" color-interpolation-filters="sRGB">
<feFlood flood-opacity="0" result="BackgroundImageFix"/>
<feColorMatrix in="SourceAlpha" type="matrix" values="0 0 0 0 0 0 0 0 0 0 0 0 0 0 0 0 0 0 127 0" result="hardAlpha"/>
<feOffset dy="4"/>
<feGaussianBlur stdDeviation="2"/>
<feComposite in2="hardAlpha" operator="out"/>
<feColorMatrix type="matrix" values="0 0 0 0 0 0 0 0 0 0 0 0 0 0 0 0 0 0 0.25 0"/>
<feBlend mode="normal" in2="BackgroundImageFix" result="effect1_dropShadow_2285_23006"/>
<feBlend mode="normal" in="SourceGraphic" in2="effect1_dropShadow_2285_23006" result="shape"/>
</filter>
<filter id="filter1_d_2285_23006" x="0" y="0" width="365" height="649" filterUnits="userSpaceOnUse" color-interpolation-filters="sRGB">
<feFlood flood-opacity="0" result="BackgroundImageFix"/>
<feColorMatrix in="SourceAlpha" type="matrix" values="0 0 0 0 0 0 0 0 0 0 0 0 0 0 0 0 0 0 127 0" result="hardAlpha"/>
<feOffset dy="3"/>
<feGaussianBlur stdDeviation="7.5"/>
<feComposite in2="hardAlpha" operator="out"/>
<feColorMatrix type="matrix" values="0 0 0 0 0.509804 0 0 0 0 0.509804 0 0 0 0 0.509804 0 0 0 0.25 0"/>
<feBlend mode="normal" in2="BackgroundImageFix" result="effect1_dropShadow_2285_23006"/>
<feBlend mode="normal" in="SourceGraphic" in2="effect1_dropShadow_2285_23006" result="shape"/>
</filter>
</defs>
</svg>
