<svg width="21" height="21" viewBox="0 0 21 21" fill="none" xmlns="http://www.w3.org/2000/svg">
<path d="M5.4719 5.46314C6.88761 4.54314 8.53047 3.85742 10.2862 3.85742C14.2719 3.85742 17.6862 7.39314 19.1862 9.20885C19.4233 9.50456 19.5548 9.88885 19.5548 10.286C19.5548 10.6846 19.4233 11.0674 19.1862 11.3631C18.359 12.3631 16.9505 13.8874 15.1862 15.0531M12.429 16.386C11.7405 16.5946 11.0233 16.7146 10.2862 16.7146C6.30047 16.7146 2.88619 13.1789 1.38619 11.3631C1.14502 11.0561 1.01509 10.6764 1.01761 10.286C1.01761 9.88885 1.14904 9.50456 1.38619 9.20885C1.8619 8.63456 2.52904 7.88599 3.34619 7.13171" stroke="black" stroke-width="1.5" stroke-linecap="round" stroke-linejoin="round"/>
<path d="M12.3057 12.3057C12.8262 11.7669 13.1142 11.0451 13.1076 10.296C13.1011 9.54686 12.8006 8.83026 12.2709 8.30052C11.7412 7.77078 11.0246 7.4703 10.2754 7.46379C9.5263 7.45728 8.80458 7.74526 8.26571 8.26571M19.5714 19.5714L1 1" stroke="black" stroke-width="1.5" stroke-linecap="round" stroke-linejoin="round"/>
</svg>
