<svg width="21" height="15" viewBox="0 0 21 15" fill="none" xmlns="http://www.w3.org/2000/svg">
<path d="M19.1686 6.35143C19.4057 6.64714 19.5372 7.03143 19.5372 7.42857C19.5372 7.82714 19.4057 8.21 19.1686 8.50571C17.6686 10.3214 14.2543 13.8571 10.2686 13.8571C6.28289 13.8571 2.86861 10.3214 1.36861 8.50571C1.12745 8.19869 0.997515 7.81897 1.00004 7.42857C1.00004 7.03143 1.13146 6.64714 1.36861 6.35143C2.86861 4.53571 6.28289 1 10.2686 1C14.2543 1 17.6686 4.53571 19.1686 6.35143Z" stroke="black" stroke-width="1.5" stroke-linecap="round" stroke-linejoin="round"/>
<path d="M10.2683 10.2856C11.026 10.2856 11.7528 9.98455 12.2886 9.44874C12.8244 8.91292 13.1254 8.18619 13.1254 7.42843C13.1254 6.67067 12.8244 5.94394 12.2886 5.40813C11.7528 4.87231 11.026 4.57129 10.2683 4.57129C9.51051 4.57129 8.78379 4.87231 8.24797 5.40813C7.71215 5.94394 7.41113 6.67067 7.41113 7.42843C7.41113 8.18619 7.71215 8.91292 8.24797 9.44874C8.78379 9.98455 9.51051 10.2856 10.2683 10.2856Z" stroke="black" stroke-width="1.5" stroke-linecap="round" stroke-linejoin="round"/>
</svg>
