<svg width="30" height="31" viewBox="0 0 30 31" fill="none" xmlns="http://www.w3.org/2000/svg">
<g clip-path="url(#clip0_1840_15180)">
<rect y="0.5" width="30" height="30" rx="15" fill="white"/>
<g clip-path="url(#clip1_1840_15180)">
<rect y="1" width="30" height="30" rx="15" fill="#F5F5F5"/>
<path d="M4.94434 39.943C3.41032 39.7824 2.04416 38.2539 2.00427 36.608C1.94278 34.1226 2.54608 32.9309 3.73441 30.7789C4.93769 28.6011 6.603 26.8998 8.71207 25.6909C10.9707 24.3955 13.3956 23.836 15.9783 24.0415C18.6873 24.2574 21.0939 25.2712 23.198 27.0346C24.9481 28.5026 26.2378 30.342 27.0771 32.5147C27.7186 34.1779 28.0394 34.7824 27.9961 36.5751C27.9563 38.2383 26.5984 39.7824 25.0528 39.9447C24.9481 40.0035 24.8201 39.9223 24.7187 40H5.28006C5.17701 39.9206 5.0507 40.0017 4.946 39.9447L4.94434 39.943Z" fill="url(#paint0_linear_1840_15180)"/>
<path d="M22.9999 14.0084C22.9815 18.4357 19.3813 22.02 14.9749 21.9999C10.5668 21.9781 6.97831 18.3753 7.0001 13.9933C7.02189 9.56271 10.6238 5.975 15.0252 6.00013C19.4332 6.02527 23.0184 9.62304 22.9999 14.0084Z" fill="url(#paint1_linear_1840_15180)"/>
<path d="M13.0755 13.9182C13.4041 13.9182 13.6704 13.5249 13.6704 13.0399C13.6704 12.5548 13.4041 12.1616 13.0755 12.1616C12.7469 12.1616 12.4805 12.5548 12.4805 13.0399C12.4805 13.5249 12.7469 13.9182 13.0755 13.9182Z" fill="white"/>
<path d="M17.0755 13.9182C17.4041 13.9182 17.6704 13.5249 17.6704 13.0399C17.6704 12.5548 17.4041 12.1616 17.0755 12.1616C16.7469 12.1616 16.4805 12.5548 16.4805 13.0399C16.4805 13.5249 16.7469 13.9182 17.0755 13.9182Z" fill="white"/>
<path d="M14.799 17.2298C14.4134 17.2298 14.1242 17.1599 14.0694 17.1326C13.9464 17.0678 13.8982 16.9143 13.9614 16.7881C14.0162 16.6773 14.1425 16.6244 14.2539 16.6602C14.327 16.6773 15.7513 16.9979 16.4011 15.9167C16.4726 15.7956 16.6272 15.7581 16.7435 15.8331C16.8615 15.9064 16.8964 16.065 16.8249 16.1844C16.3097 17.0439 15.4272 17.2298 14.7973 17.2298H14.799Z" fill="white"/>
</g>
</g>
<defs>
<linearGradient id="paint0_linear_1840_15180" x1="5.16704" y1="28.1969" x2="26.5028" y2="40.0513" gradientUnits="userSpaceOnUse">
<stop stop-color="#FFE266"/>
<stop offset="1" stop-color="#FFCC00"/>
</linearGradient>
<linearGradient id="paint1_linear_1840_15180" x1="8.07782" y1="10.0051" x2="21.9224" y2="17.9992" gradientUnits="userSpaceOnUse">
<stop stop-color="#FFE266"/>
<stop offset="1" stop-color="#FFCC00"/>
</linearGradient>
<clipPath id="clip0_1840_15180">
<rect y="0.5" width="30" height="30" rx="15" fill="white"/>
</clipPath>
<clipPath id="clip1_1840_15180">
<rect y="1" width="30" height="30" rx="15" fill="white"/>
</clipPath>
</defs>
</svg>
