<svg width="30" height="31" viewBox="0 0 30 31" fill="none" xmlns="http://www.w3.org/2000/svg">
<g clip-path="url(#clip0_1848_17792)">
<rect y="0.5" width="30" height="30" rx="15" fill="#F5F5F5"/>
<path d="M4.94434 39.443C3.41032 39.2824 2.04416 37.7539 2.00427 36.108C1.94278 33.6226 2.54608 32.4309 3.73441 30.2789C4.93769 28.1011 6.603 26.3998 8.71207 25.1909C10.9707 23.8955 13.3956 23.336 15.9783 23.5415C18.6873 23.7574 21.0939 24.7712 23.198 26.5346C24.9481 28.0026 26.2378 29.842 27.0771 32.0147C27.7186 33.6779 28.0394 34.2824 27.9961 36.0751C27.9563 37.7383 26.5984 39.2824 25.0528 39.4447C24.9481 39.5035 24.8201 39.4223 24.7187 39.5H5.28006C5.17701 39.4206 5.0507 39.5017 4.946 39.4447L4.94434 39.443Z" fill="url(#paint0_linear_1848_17792)"/>
<path d="M22.9999 13.5084C22.9815 17.9357 19.3813 21.52 14.9749 21.4999C10.5668 21.4781 6.97831 17.8753 7.0001 13.4933C7.02189 9.06271 10.6238 5.475 15.0252 5.50013C19.4332 5.52527 23.0184 9.12304 22.9999 13.5084Z" fill="url(#paint1_linear_1848_17792)"/>
<path d="M13.0755 13.4182C13.4041 13.4182 13.6704 13.0249 13.6704 12.5399C13.6704 12.0548 13.4041 11.6616 13.0755 11.6616C12.7469 11.6616 12.4805 12.0548 12.4805 12.5399C12.4805 13.0249 12.7469 13.4182 13.0755 13.4182Z" fill="white"/>
<path d="M17.0755 13.4182C17.4041 13.4182 17.6704 13.0249 17.6704 12.5399C17.6704 12.0548 17.4041 11.6616 17.0755 11.6616C16.7469 11.6616 16.4805 12.0548 16.4805 12.5399C16.4805 13.0249 16.7469 13.4182 17.0755 13.4182Z" fill="white"/>
<path d="M14.799 16.7298C14.4134 16.7298 14.1242 16.6599 14.0694 16.6326C13.9464 16.5678 13.8982 16.4143 13.9614 16.2881C14.0162 16.1773 14.1425 16.1244 14.2539 16.1602C14.327 16.1773 15.7513 16.4979 16.4011 15.4167C16.4726 15.2956 16.6272 15.2581 16.7435 15.3331C16.8615 15.4064 16.8964 15.565 16.8249 15.6844C16.3097 16.5439 15.4272 16.7298 14.7973 16.7298H14.799Z" fill="white"/>
<rect y="0.5" width="30" height="30" rx="15" fill="#828282" fill-opacity="0.5"/>
</g>
<defs>
<linearGradient id="paint0_linear_1848_17792" x1="5.16704" y1="27.6969" x2="26.5028" y2="39.5513" gradientUnits="userSpaceOnUse">
<stop stop-color="#FFE266"/>
<stop offset="1" stop-color="#FFCC00"/>
</linearGradient>
<linearGradient id="paint1_linear_1848_17792" x1="8.07782" y1="9.5051" x2="21.9224" y2="17.4992" gradientUnits="userSpaceOnUse">
<stop stop-color="#FFE266"/>
<stop offset="1" stop-color="#FFCC00"/>
</linearGradient>
<clipPath id="clip0_1848_17792">
<rect y="0.5" width="30" height="30" rx="15" fill="white"/>
</clipPath>
</defs>
</svg>
