<svg width="23" height="24" viewBox="0 0 23 24" fill="none" xmlns="http://www.w3.org/2000/svg">
<g clip-path="url(#clip0_3080_5440)">
<path d="M21.9354 10.9319H12.5681V1.56462C12.5681 0.977006 12.0911 0.5 11.5035 0.5C10.9158 0.5 10.4388 0.977006 10.4388 1.56462V10.9319H1.06462C0.477006 10.9319 0 11.4089 0 11.9965C0 12.5842 0.477006 13.0612 1.06462 13.0612H10.4319V22.4285C10.4319 23.0161 10.9089 23.4931 11.4965 23.4931C12.0842 23.4931 12.5612 23.0161 12.5612 22.4285V13.0612H21.9285C22.5161 13.0612 22.9931 12.5842 22.9931 11.9965C22.9931 11.4089 22.5161 10.9319 21.9285 10.9319H21.9354Z" fill="#FFCC00"/>
</g>
<defs>
<clipPath id="clip0_3080_5440">
<rect width="23" height="23" fill="white" transform="translate(0 0.5)"/>
</clipPath>
</defs>
</svg>
