<svg width="24" height="24" viewBox="0 0 24 24" fill="none" xmlns="http://www.w3.org/2000/svg">
<g clip-path="url(#clip0_345_1733)">
<path d="M22.4354 10.9319H13.0681V1.56462C13.0681 0.977006 12.5911 0.5 12.0035 0.5C11.4158 0.5 10.9388 0.977006 10.9388 1.56462V10.9319H1.56462C0.977006 10.9319 0.5 11.4089 0.5 11.9965C0.5 12.5842 0.977006 13.0612 1.56462 13.0612H10.9319V22.4285C10.9319 23.0161 11.4089 23.4931 11.9965 23.4931C12.5842 23.4931 13.0612 23.0161 13.0612 22.4285V13.0612H22.4285C23.0161 13.0612 23.4931 12.5842 23.4931 11.9965C23.4931 11.4089 23.0161 10.9319 22.4285 10.9319H22.4354Z" fill="#E5E5E5"/>
</g>
<defs>
<clipPath id="clip0_345_1733">
<rect width="23" height="23" fill="white" transform="translate(0.5 0.5)"/>
</clipPath>
</defs>
</svg>
