<svg width="23" height="23" viewBox="0 0 23 23" fill="none" xmlns="http://www.w3.org/2000/svg">
<g clip-path="url(#clip0_223_3373)">
<path d="M21.942 10.4351H12.5719V1.06494C12.5719 0.47715 12.0947 0 11.5069 0C10.9191 0 10.442 0.47715 10.442 1.06494V10.4351H1.06494C0.47715 10.4351 0 10.9122 0 11.5C0 12.0878 0.47715 12.5649 1.06494 12.5649H10.4351V21.9351C10.4351 22.5229 10.9122 23 11.5 23C12.0878 23 12.5649 22.5229 12.5649 21.9351V12.5649H21.9351C22.5229 12.5649 23 12.0878 23 11.5C23 10.9122 22.5229 10.4351 21.9351 10.4351H21.942Z" fill="#F2AE00"/>
</g>
<defs>
<clipPath id="clip0_223_3373">
<rect width="23" height="23" fill="white"/>
</clipPath>
</defs>
</svg>
