<svg width="24" height="18" viewBox="0 0 24 18" fill="none" xmlns="http://www.w3.org/2000/svg">
<g clip-path="url(#clip0_125_453)">
<path d="M9.22985 0.63578L6.3511 7.71009L3.39648 0.634255H0L4.79643 11.216L2.05753 17.5H5.33499L12.6353 0.63578H9.22985ZM24 6.68792V11.9147H21.3756V10.7507C20.5202 11.637 19.4133 12.1741 18.2202 12.1741C15.0766 12.1741 12.5281 9.56067 12.5281 6.33703C12.5281 3.11339 15.0766 0.5 18.2202 0.5C21.3637 0.5 24 3.04626 24 6.68792ZM21.0513 6.35228C21.0513 4.74886 19.7838 3.44903 18.2202 3.44903C16.6566 3.44903 15.389 4.74886 15.389 6.35228C15.389 7.95571 16.6566 9.25554 18.2202 9.25554C19.7838 9.25554 21.0513 7.95571 21.0513 6.35228Z" fill="#FF3478"/>
</g>
<defs>
<clipPath id="clip0_125_453">
<rect width="24" height="17" fill="white" transform="translate(0 0.5)"/>
</clipPath>
</defs>
</svg>
