<svg width="22" height="16" viewBox="0 0 22 16" fill="none" xmlns="http://www.w3.org/2000/svg">
<path d="M8.4607 0.619806L5.82184 6.86184L3.11344 0.61846H0L4.39673 9.95526L1.88606 15.5H4.8904L11.5823 0.619806H8.4607ZM22 5.95993V10.5718H19.5943V9.54469C18.8102 10.3268 17.7956 10.8006 16.7018 10.8006C13.8202 10.8006 11.4841 8.49471 11.4841 5.65032C11.4841 2.80593 13.8202 0.5 16.7018 0.5C19.5834 0.5 22 2.7467 22 5.95993ZM19.297 5.66378C19.297 4.24899 18.1351 3.10208 16.7018 3.10208C15.2685 3.10208 14.1066 4.24899 14.1066 5.66378C14.1066 7.07857 15.2685 8.22548 16.7018 8.22548C18.1351 8.22548 19.297 7.07857 19.297 5.66378Z" fill="white"/>
</svg>
