<svg width="190" height="56" viewBox="0 0 190 56" fill="none" xmlns="http://www.w3.org/2000/svg">
<g clip-path="url(#clip0_1050_4837)">
<path d="M95.2485 24.8325V41.6973H87.7184V25.4654C87.7184 22.09 85.5548 19.5431 81.658 19.5431C78.1157 19.5431 75.5885 22.09 75.5885 25.5326L75.5794 41.6973H68.0736V12.9635H75.2855V16.342C77.0975 13.5078 80.8186 12.6303 83.4489 12.6303C92.091 12.6303 95.2485 18.3752 95.2485 24.8356V24.8325ZM23.8901 12.9727L16.4358 30.9932L8.79366 12.9696H0L12.4178 39.9209L5.3271 55.9266H13.8117L32.708 12.9727H23.8932H23.8901ZM129.435 27.5322C129.435 35.7445 122.839 42.4005 114.699 42.4005C106.56 42.4005 99.9635 35.7445 99.9635 27.5322C99.9635 19.3199 106.56 12.6639 114.699 12.6639C122.839 12.6639 129.435 19.3199 129.435 27.5322ZM122.029 27.5322C122.029 23.4475 118.748 20.1363 114.699 20.1363C110.651 20.1363 107.369 23.4475 107.369 27.5322C107.369 31.6169 110.651 34.9282 114.699 34.9282C118.748 34.9282 122.029 31.6169 122.029 27.5322ZM62.1253 28.3883V41.7004H55.3346V38.7377C53.1195 40.9941 50.2529 42.3638 47.1652 42.3638C39.026 42.3638 32.4293 35.7078 32.4293 27.4955C32.4293 19.2832 39.026 12.6272 47.1652 12.6272C55.3043 12.6272 62.1253 19.112 62.1253 28.3852V28.3883ZM54.4922 27.5322C54.4922 23.4475 51.2105 20.1363 47.1621 20.1363C43.1138 20.1363 39.8321 23.4475 39.8321 27.5322C39.8321 31.6169 43.1138 34.9282 47.1621 34.9282C51.2105 34.9282 54.4922 31.6169 54.4922 27.5322ZM189.997 28.3883V41.7004H183.206V38.7377C180.991 40.9941 178.128 42.3638 175.037 42.3638C166.898 42.3638 160.301 35.7078 160.301 27.4955C160.301 19.2832 166.898 12.6272 175.037 12.6272C183.176 12.6272 189.997 19.112 189.997 28.3852V28.3883ZM182.364 27.5322C182.364 23.4475 179.082 20.1363 175.034 20.1363C170.985 20.1363 167.704 23.4475 167.704 27.5322C167.704 31.6169 170.985 34.9282 175.034 34.9282C179.082 34.9282 182.364 31.6169 182.364 27.5322ZM134.244 41.6912H141.911V0H134.244V41.6912ZM148.059 41.2937C148.059 46.6137 144.883 48.3717 141.968 48.3717V56C146.341 56 155.595 54.7464 155.64 41.4283V12.9605H148.056V41.2907L148.059 41.2937Z" fill="#FF3478"/>
</g>
<defs>
<clipPath id="clip0_1050_4837">
<rect width="190" height="56" fill="white"/>
</clipPath>
</defs>
</svg>
